<?xml version="1.0" encoding="UTF-8" standalone="no"?>
<!-- Created with Inkscape (http://www.inkscape.org/) -->

<svg
   xmlns:dc="http://purl.org/dc/elements/1.1/"
   xmlns:cc="http://creativecommons.org/ns#"
   xmlns:rdf="http://www.w3.org/1999/02/22-rdf-syntax-ns#"
   xmlns:svg="http://www.w3.org/2000/svg"
   xmlns="http://www.w3.org/2000/svg"
   xmlns:xlink="http://www.w3.org/1999/xlink"
   xmlns:sodipodi="http://sodipodi.sourceforge.net/DTD/sodipodi-0.dtd"
   xmlns:inkscape="http://www.inkscape.org/namespaces/inkscape"
   width="1396.6526"
   height="667"
   viewBox="0 0 369.531 176.47709"
   version="1.1"
   id="svg8"
   inkscape:version="0.92.3 (2405546, 2018-03-11)"
   sodipodi:docname="background-coba-lagi.svg">
  <defs
     id="defs2">
    <linearGradient
       inkscape:collect="always"
       id="linearGradient2823">
      <stop
         style="stop-color:#d60000;stop-opacity:1"
         offset="0"
         id="stop2819" />
      <stop
         style="stop-color:#ffb31f;stop-opacity:1"
         offset="1"
         id="stop2821" />
    </linearGradient>
    <linearGradient
       inkscape:collect="always"
       id="linearGradient2807">
      <stop
         style="stop-color:#fc0000;stop-opacity:1"
         offset="0"
         id="stop2803" />
      <stop
         style="stop-color:#ff8929;stop-opacity:1"
         offset="1"
         id="stop2805" />
    </linearGradient>
    <linearGradient
       inkscape:collect="always"
       id="linearGradient2795">
      <stop
         style="stop-color:#aa0000;stop-opacity:1;"
         offset="0"
         id="stop2791" />
      <stop
         style="stop-color:#aa0000;stop-opacity:0;"
         offset="1"
         id="stop2793" />
    </linearGradient>
    <linearGradient
       inkscape:collect="always"
       id="linearGradient2787">
      <stop
         style="stop-color:#aa0000;stop-opacity:1;"
         offset="0"
         id="stop2783" />
      <stop
         style="stop-color:#aa0000;stop-opacity:0;"
         offset="1"
         id="stop2785" />
    </linearGradient>
    <linearGradient
       inkscape:collect="always"
       id="linearGradient2779">
      <stop
         style="stop-color:#aa0000;stop-opacity:1;"
         offset="0"
         id="stop2775" />
      <stop
         style="stop-color:#aa0000;stop-opacity:0;"
         offset="1"
         id="stop2777" />
    </linearGradient>
    <linearGradient
       inkscape:collect="always"
       id="linearGradient2771">
      <stop
         style="stop-color:#d40000;stop-opacity:1"
         offset="0"
         id="stop2767" />
      <stop
         style="stop-color:#aa0000;stop-opacity:0;"
         offset="1"
         id="stop2769" />
    </linearGradient>
    <linearGradient
       id="linearGradient856"
       inkscape:collect="always">
      <stop
         id="stop852"
         offset="0"
         style="stop-color:#ca1111;stop-opacity:1" />
      <stop
         id="stop854"
         offset="1"
         style="stop-color:#4f0b0b;stop-opacity:1" />
    </linearGradient>
    <linearGradient
       id="linearGradient850"
       inkscape:collect="always">
      <stop
         id="stop846"
         offset="0"
         style="stop-color:#ca1111;stop-opacity:1" />
      <stop
         id="stop848"
         offset="1"
         style="stop-color:#0f0f0f;stop-opacity:1" />
    </linearGradient>
    <linearGradient
       inkscape:collect="always"
       id="linearGradient836">
      <stop
         style="stop-color:#ca1111;stop-opacity:1"
         offset="0"
         id="stop832" />
      <stop
         style="stop-color:#3a0808;stop-opacity:1"
         offset="1"
         id="stop834" />
    </linearGradient>
    <linearGradient
       inkscape:collect="always"
       xlink:href="#linearGradient850"
       id="linearGradient838"
       x1="-428.40771"
       y1="-19.851107"
       x2="-446.87466"
       y2="116.32579"
       gradientUnits="userSpaceOnUse" />
    <linearGradient
       inkscape:collect="always"
       xlink:href="#linearGradient856"
       id="linearGradient840"
       x1="-485.26767"
       y1="13.401192"
       x2="-507.38495"
       y2="127.32207"
       gradientUnits="userSpaceOnUse" />
    <linearGradient
       inkscape:collect="always"
       xlink:href="#linearGradient836"
       id="linearGradient842"
       x1="-431.90756"
       y1="62.871895"
       x2="-458.63452"
       y2="185.81587"
       gradientUnits="userSpaceOnUse" />
    <clipPath
       id="clipPath903"
       clipPathUnits="userSpaceOnUse">
      <path
         inkscape:connector-curvature="0"
         id="path901"
         d="m 3881.73,2260.12 c -113.41,0 -226.84,8.83 -335.46,32.39 -203.2,170.21 -407.64,338.78 -617.5,500.16 -69.82,176.07 -80.78,375.91 -18.37,555.13 61.9,178 189.2,351.5 148.7,535.6 -16.05,72.9 -57.68,135.9 -112.82,186.6 h 933.07 c -1.67,-7.91 -2.55,-16.12 -2.55,-24.53 0,-65.09 52.77,-117.87 117.86,-117.87 65.1,0 117.87,52.78 117.87,117.87 0,8.41 -0.88,16.62 -2.56,24.53 H 5000 V 2293.3 c -92.58,16.79 -185.95,23.09 -279.66,23.09 -208.83,0 -419.6,-31.27 -628.74,-47.49 -69.16,-5.38 -139.54,-8.78 -209.87,-8.78 m 755.78,1538.69 c -110.85,0 -200.71,-89.86 -200.71,-200.71 0,-110.85 89.86,-200.71 200.71,-200.71 110.85,0 200.7,89.86 200.7,200.71 0,110.85 -89.85,200.71 -200.7,200.71 M 2495,3493.75 c 0,38.75 -10,76.25 -45,106.25 -100,90 -230,100 -350,100 -0.33,0 -0.62,-0.01 -0.95,-0.01 0.33,0 0.62,0.01 0.95,0.01 120,0 250,-10 350,-100 35,-30 45,-67.5 45,-106.25 m -410.91,206.16 v 0 c 0.33,0 0.63,0 0.95,0 -0.32,0 -0.62,0 -0.95,0 m -0.06,0 c -147.77,-0.01 -291.63,22.63 -429.08,64.31 l -0.02,0.01 c 137.45,-41.69 281.33,-64.32 429.1,-64.32 m 1.14,0 c 0.23,0 0.48,0 0.71,0 -0.23,0 -0.48,0 -0.71,0 m 1.19,0.01 c 0.14,0 0.24,0 0.38,0 -0.14,0 -0.24,0 -0.38,0 m 10.99,0.05 c 0.14,0.01 0.26,0.01 0.4,0.01 -0.14,0 -0.26,0 -0.4,-0.01 m 0.85,0.01 c 0.23,0 0.5,0.01 0.73,0.01 -0.23,0 -0.5,-0.01 -0.73,-0.01" />
    </clipPath>
    <clipPath
       id="clipPath915"
       clipPathUnits="userSpaceOnUse">
      <path
         inkscape:connector-curvature="0"
         id="path913"
         d="m 3546.27,2292.51 c -120.77,26.2 -235.54,70.61 -337.77,141.39 -127.04,87.86 -222.89,215.45 -279.73,358.77 209.86,-161.38 414.3,-329.95 617.5,-500.16 M 1654.95,3764.22 c -207,62.77 -399.18,168.76 -567.36,305.78 h 0.04 c 168.14,-136.99 360.36,-242.99 567.3,-305.77 l 0.02,-0.01" />
    </clipPath>
    <clipPath
       id="clipPath927"
       clipPathUnits="userSpaceOnUse">
      <path
         inkscape:connector-curvature="0"
         id="path925"
         d="m 5000,1132.75 c -118.29,140.8 -230.39,287.82 -340,447.25 -190,280 -460,490 -770,540 -540,90 -1190,-20 -1450,550 -33.35,72.77 -45.56,144.63 -45.54,216.12 0.04,164.28 64.64,326.65 85.54,493.88 5,35 15,75 15,113.75 0,38.75 -10,76.25 -45,106.25 -100,90 -230,100 -350,100 -0.33,0 -0.62,-0.01 -0.95,-0.01 -0.05,0 -0.07,0 -0.12,0 -0.23,0 -0.5,-0.01 -0.73,-0.01 -0.14,0 -0.31,0 -0.45,0 -0.14,0 -0.26,0 -0.4,-0.01 -3.49,-0.03 -7.13,-0.05 -10.61,-0.05 -0.14,0 -0.24,0 -0.38,0 -0.14,-0.01 -0.34,-0.01 -0.48,-0.01 -0.23,0 -0.48,0 -0.71,0 -0.05,0 -0.08,0 -0.13,0 -0.32,0 -0.62,0 -0.95,0 h -0.06 c -147.77,0 -291.65,22.63 -429.1,64.32 -206.94,62.78 -399.16,168.78 -567.3,305.77 h 1858.65 c 55.14,-50.7 96.77,-113.7 112.82,-186.6 40.5,-184.1 -86.8,-357.6 -148.7,-535.6 -62.41,-179.22 -51.45,-379.06 18.37,-555.13 56.84,-143.32 152.69,-270.91 279.73,-358.77 102.23,-70.78 217,-115.19 337.77,-141.39 108.62,-23.56 222.05,-32.39 335.46,-32.39 70.33,0 140.71,3.4 209.87,8.78 209.14,16.22 419.91,47.49 628.74,47.49 93.71,0 187.08,-6.3 279.66,-23.09 v 0 -1160.55" />
    </clipPath>
    <clipPath
       id="clipPath939"
       clipPathUnits="userSpaceOnUse">
      <path
         inkscape:connector-curvature="0"
         id="path937"
         d="m 3822.81,720 h -485.98 c -8.77,102.75 -94.95,183.422 -199.97,183.422 -105.03,0 -191.21,-80.672 -199.98,-183.422 H 370.504 c 2.586,8.43 3.98,17.379 3.98,26.66 0,50.129 -40.636,90.762 -90.761,90.762 -50.129,0 -90.762,-40.633 -90.762,-90.762 0,-9.281 1.391,-18.23 3.977,-26.66 H 180 v 1453.78 c 81.836,-21.24 168.258,-31.03 254.395,-31.02 60.558,0 120.992,4.84 179.507,13.94 296.098,45.99 572.898,176.9 866.898,234.5 80.89,15.88 165.44,24.86 249.64,24.86 5.45,0 10.89,-0.04 16.34,-0.11 31.41,-97.68 55.35,-198.64 106.72,-287.15 133.91,-230.76 404.54,-312.35 681.76,-330.08 11.22,-20.9 22.98,-41.46 35.54,-61.52 138,-220.3 378.9,-373 637.1,-403.8 212.5,-25.4 475,6.9 593.8,-171.2 83.97,-126.01 44.69,-292.309 21.11,-442.2 m -1139.15,306.67 c -52.25,0 -94.62,-42.361 -94.62,-94.619 0,-52.262 42.37,-94.629 94.62,-94.629 52.26,0 94.62,42.367 94.62,94.629 0,52.258 -42.36,94.619 -94.62,94.619" />
    </clipPath>
    <clipPath
       id="clipPath951"
       clipPathUnits="userSpaceOnUse">
      <path
         inkscape:connector-curvature="0"
         id="path949"
         d="m 4139.87,720 h -317.06 c 23.58,149.891 62.86,316.19 -21.11,442.2 -118.8,178.1 -381.3,145.8 -593.8,171.2 -258.2,30.8 -499.1,183.5 -637.1,403.8 -12.56,20.06 -24.32,40.62 -35.54,61.52 42.89,-2.74 85.96,-3.96 128.69,-3.96 52.1,0 103.69,1.81 153.95,4.84 111.7,6.77 228.16,14.53 343.45,14.53 253.98,0 502.33,-37.65 682.05,-206.43 233.96,-219.81 248.41,-559.39 296.47,-887.7 M 434.395,2142.76 c -86.137,-0.01 -172.559,9.78 -254.395,31.02 v 856.21 c 264.941,-57.53 541.246,-36.96 810.297,-72.29 275.803,-36.3 566.903,-151.4 697.903,-396.8 24.57,-46.07 42.55,-95.08 58.58,-144.95 -5.45,0.07 -10.89,0.11 -16.34,0.11 -84.2,0 -168.75,-8.98 -249.64,-24.86 -294,-57.6 -570.8,-188.51 -866.898,-234.5 -58.515,-9.1 -118.949,-13.94 -179.507,-13.94" />
    </clipPath>
    <clipPath
       id="clipPath963"
       clipPathUnits="userSpaceOnUse">
      <path
         inkscape:connector-curvature="0"
         id="path961"
         d="m 5000,720 h -860.13 c -48.06,328.31 -62.51,667.89 -296.47,887.7 -179.72,168.78 -428.07,206.43 -682.05,206.43 -115.29,0 -231.75,-7.76 -343.45,-14.53 -50.26,-3.03 -101.85,-4.84 -153.95,-4.84 -42.73,0 -85.8,1.22 -128.69,3.96 -277.22,17.73 -547.85,99.32 -681.76,330.08 -51.37,88.51 -75.31,189.47 -106.72,287.15 -16.03,49.87 -34.01,98.88 -58.58,144.95 -131,245.4 -422.1,360.5 -697.903,396.8 -269.051,35.33 -545.356,14.76 -810.297,72.29 V 4070 h 907.59 c 168.18,-137.02 360.36,-243.01 567.36,-305.78 137.45,-41.68 281.31,-64.32 429.08,-64.31 h 0.06 v 0 c 0.33,0 0.63,0 0.95,0 0.05,0 0.08,0 0.13,0 0.23,0 0.48,0 0.71,0 0.14,0 0.34,0 0.48,0.01 0.14,0 0.24,0 0.38,0 3.48,0 7.12,0.02 10.61,0.05 0.14,0.01 0.26,0.01 0.4,0.01 0.14,0 0.31,0 0.45,0 0.23,0 0.5,0.01 0.73,0.01 0.05,0 0.07,0 0.12,0 0.33,0 0.62,0.01 0.95,0.01 120,0 250,-10 350,-100 35,-30 45,-67.5 45,-106.25 0,-38.75 -10,-78.75 -15,-113.75 -20.9,-167.23 -85.5,-329.6 -85.54,-493.88 -0.02,-71.49 12.19,-143.35 45.54,-216.12 260,-570 910,-460 1450,-550 310,-50 580,-260 770,-540 109.61,-159.43 221.71,-306.45 340,-447.25 V 720" />
    </clipPath>
    <clipPath
       id="clipPath975"
       clipPathUnits="userSpaceOnUse">
      <path
         inkscape:connector-curvature="0"
         id="path973"
         d="m 3336.83,720 h -399.95 c 8.77,102.75 94.95,183.422 199.98,183.422 105.02,0 191.2,-80.672 199.97,-183.422" />
    </clipPath>
    <clipPath
       id="clipPath987"
       clipPathUnits="userSpaceOnUse">
      <path
         inkscape:connector-curvature="0"
         id="path985"
         d="M 370.504,720 H 196.938 c -2.586,8.43 -3.977,17.379 -3.977,26.66 0,50.129 40.633,90.762 90.762,90.762 50.125,0 90.761,-40.633 90.761,-90.762 0,-9.281 -1.394,-18.23 -3.98,-26.66" />
    </clipPath>
    <clipPath
       id="clipPath999"
       clipPathUnits="userSpaceOnUse">
      <path
         inkscape:connector-curvature="0"
         id="path997"
         d="m 4637.51,3397.39 c -110.85,0 -200.71,89.86 -200.71,200.71 0,110.85 89.86,200.71 200.71,200.71 110.85,0 200.7,-89.86 200.7,-200.71 0,-110.85 -89.85,-200.71 -200.7,-200.71" />
    </clipPath>
    <clipPath
       id="clipPath1011"
       clipPathUnits="userSpaceOnUse">
      <path
         inkscape:connector-curvature="0"
         id="path1009"
         d="m 3994.66,3927.6 c -65.09,0 -117.86,52.78 -117.86,117.87 0,8.41 0.88,16.62 2.55,24.53 h 230.62 c 1.68,-7.91 2.56,-16.12 2.56,-24.53 0,-65.09 -52.77,-117.87 -117.87,-117.87" />
    </clipPath>
    <clipPath
       id="clipPath1023"
       clipPathUnits="userSpaceOnUse">
      <path
         inkscape:connector-curvature="0"
         id="path1021"
         d="m 2683.66,837.422 c -52.25,0 -94.62,42.367 -94.62,94.629 0,52.258 42.37,94.619 94.62,94.619 52.26,0 94.62,-42.361 94.62,-94.619 0,-52.262 -42.36,-94.629 -94.62,-94.629" />
    </clipPath>
    <linearGradient
       inkscape:collect="always"
       xlink:href="#linearGradient2771"
       id="linearGradient2773"
       x1="292.36456"
       y1="148.26637"
       x2="294.22665"
       y2="153.74092"
       gradientUnits="userSpaceOnUse" />
    <linearGradient
       inkscape:collect="always"
       xlink:href="#linearGradient2779"
       id="linearGradient2781"
       x1="316.0462"
       y1="181.00504"
       x2="316.0462"
       y2="188.08768"
       gradientUnits="userSpaceOnUse" />
    <linearGradient
       inkscape:collect="always"
       xlink:href="#linearGradient2787"
       id="linearGradient2789"
       x1="324.99976"
       y1="191.96309"
       x2="324.99976"
       y2="202.25296"
       gradientUnits="userSpaceOnUse" />
    <linearGradient
       inkscape:collect="always"
       xlink:href="#linearGradient2795"
       id="linearGradient2797"
       x1="307.22632"
       y1="190.09219"
       x2="307.22632"
       y2="201.98569"
       gradientUnits="userSpaceOnUse" />
    <linearGradient
       inkscape:collect="always"
       xlink:href="#linearGradient2807"
       id="linearGradient2809"
       x1="288.81027"
       y1="198.73219"
       x2="296.31546"
       y2="226.74193"
       gradientUnits="userSpaceOnUse" />
    <linearGradient
       inkscape:collect="always"
       xlink:href="#linearGradient2823"
       id="linearGradient2825"
       x1="168.46643"
       y1="201.59538"
       x2="163.74458"
       y2="227.84653"
       gradientUnits="userSpaceOnUse" />
  </defs>
  <sodipodi:namedview
     id="base"
     pagecolor="#ffffff"
     bordercolor="#666666"
     borderopacity="1.0"
     inkscape:pageopacity="0.0"
     inkscape:pageshadow="2"
     inkscape:zoom="0.35"
     inkscape:cx="498.83687"
     inkscape:cy="471.75694"
     inkscape:document-units="mm"
     inkscape:current-layer="layer1"
     showgrid="false"
     units="px"
     inkscape:window-width="1366"
     inkscape:window-height="725"
     inkscape:window-x="0"
     inkscape:window-y="20"
     inkscape:window-maximized="1" />
  <metadata
     id="metadata5">
    <rdf:RDF>
      <cc:Work
         rdf:about="">
        <dc:format>image/svg+xml</dc:format>
        <dc:type
           rdf:resource="http://purl.org/dc/dcmitype/StillImage" />
        <dc:title />
      </cc:Work>
    </rdf:RDF>
  </metadata>
  <g
     inkscape:label="Layer 1"
     inkscape:groupmode="layer"
     id="layer1"
     transform="translate(78.394791,-136.30338)">
    <rect
       style="opacity:1;fill:#ffffff;fill-opacity:1;stroke:none;stroke-width:0.17834559;stroke-opacity:1"
       id="rect844"
       width="369.53101"
       height="176.47708"
       x="-78.394791"
       y="136.30338" />
    <g
       id="g861"
       transform="matrix(0.49238275,0,0,0.49218204,459.19236,145.64897)">
      <path
         inkscape:connector-curvature="0"
         id="path830"
         d="m -558.64881,-18.988095 h 204.86309 c 0,0 2.86083,23.5952316 -12.10625,49.520376 -14.96711,25.925142 -11.32827,20.783195 -11.32827,20.783195 l -76.72916,30.61607 -92.60417,-1.511903 -13.60715,-57.830358 z"
         style="fill:url(#linearGradient838);fill-opacity:1;stroke:none;stroke-width:0.26458332px;stroke-linecap:butt;stroke-linejoin:miter;stroke-opacity:1" />
      <path
         inkscape:connector-curvature="0"
         id="path826"
         d="m -682.62499,-18.988095 h 123.97618 c 0,0 11.3393,15.8749999 9.82739,46.869048 -1.51191,30.994048 40.82143,44.60119 53.67261,46.113093 12.85121,1.511906 40.06548,-4.535712 56.69642,-11.339285 16.63097,-6.803572 43.84524,-25.702381 61.23215,-11.339285 0,9.071428 -2.64583,22.67857 16.25299,44.979167 20.03274,24.190477 19.65475,24.946427 19.65475,24.946427 v 59.90922 c 0,0 -29.10416,53.86161 -73.32739,6.23661 -7.9375,-8.69345 -10.96129,-19.27678 -17.00892,-25.3244 -6.04761,-6.04762 -16.25296,-9.82738 -32.50594,-6.04762 -16.25299,3.77976 -27.59226,10.58333 -44.22323,9.07143 -16.63094,-1.51191 -41.19941,-7.18155 -51.02677,-37.04167 -2.35061,-8.77256 -0.75597,-26.08036 -0.75597,-26.08036 0,0 7.18156,-33.2619 -13.60712,-40.06547 -2.92254,-1.687325 -15.11906,-6.047621 -45.35715,-1.889882 -7.55952,0 -27.21428,1.133927 -40.44344,-7.9375 -13.60715,-9.07143 -34.39584,-23.434524 -23.05656,-71.059523 z"
         style="fill:url(#linearGradient840);fill-opacity:1;stroke:none;stroke-width:0.26458332px;stroke-linecap:butt;stroke-linejoin:miter;stroke-opacity:1" />
      <path
         inkscape:connector-curvature="0"
         id="path828"
         d="m -660.3244,51.693452 c 0,0 15.67032,-1.917766 33.04283,-9.935853 17.37252,-8.018084 38.44782,-17.565946 56.12659,-12.828936 4.07459,1.091779 16.57073,9.621702 21.64885,37.417734 5.07812,27.79603 13.53589,57.162533 58.13708,49.603003 44.60121,-7.55952 78.61906,-21.922615 78.61906,-21.922615 0,0 30.61607,-22.300596 47.24701,-3.401787 4.53573,4.535715 22.44392,27.379622 24.19048,30.616072 0,5.37461 0,59.90922 0,59.90922 0,0 -13.04017,25.70239 -36.47469,25.89137 -6.99256,0 -22.11162,-0.56696 -42.52232,-26.26934 -1.14909,-1.99025 -8.69347,-18.52083 -15.49704,-21.92262 -6.80355,-3.40179 -13.22917,-6.99256 -38.17559,0 -24.94643,6.99256 -26.83629,8.69345 -47.24702,4.34673 -2.83483,0 -30.80507,-7.74852 -39.12052,-37.23066 -0.83193,-3.10473 -0.94496,-17.3869 0.94493,-31.561009 0,-2.267858 2.83485,-26.269344 -14.36309,-32.505951 -1.96832,-1.13642 -16.63094,-6.425597 -45.35715,-1.889882 -1.88989,0 -26.26934,2.267857 -41.19941,-8.315476 z"
         style="fill:url(#linearGradient842);fill-opacity:1;stroke:none;stroke-width:0.26458332px;stroke-linecap:butt;stroke-linejoin:miter;stroke-opacity:1" />
    </g>
    <g
       id="g3264"
       transform="matrix(0.71319004,0,0,0.71319004,31.575307,78.104032)">
      <path
         inkscape:connector-curvature="0"
         id="path2219"
         style="fill:url(#linearGradient2797);fill-opacity:1;fill-rule:nonzero;stroke:none;stroke-width:0.08003868"
         d="m 314.68439,200.07785 h -14.78075 v -9.77513 h 14.78075 v 9.77513" />
      <path
         inkscape:connector-curvature="0"
         id="path2221"
         style="fill:url(#linearGradient2789);fill-opacity:1;fill-rule:nonzero;stroke:none;stroke-width:0.08003868"
         d="m 332.97803,200.07785 h -14.77995 v -9.77513 h 14.77995 v 9.77513" />
      <path
         inkscape:connector-curvature="0"
         id="path2223"
         style="fill:url(#linearGradient2781);fill-opacity:1;fill-rule:nonzero;stroke:none;stroke-width:0.08003868"
         d="m 323.83041,187.86715 h -14.77914 v -9.77513 h 14.77914 v 9.77513" />
      <path
         inkscape:connector-curvature="0"
         id="path2225"
         style="fill:#cccccc;fill-opacity:1;fill-rule:nonzero;stroke:none;stroke-width:0.08003868"
         d="m 220.91027,277.09187 c 0,0 -16.44236,3.57453 -36.72496,3.57453 -20.28339,0 -36.72495,-3.57453 -36.72495,-3.57453 0,0 16.44156,-3.57533 36.72495,-3.57533 20.2826,0 36.72496,3.57533 36.72496,3.57533" />
      <path
         inkscape:connector-curvature="0"
         id="path2227"
         style="fill:#b3b3b3;fill-opacity:1;fill-rule:nonzero;stroke:none;stroke-width:0.08003868"
         d="m 220.90625,277.09427 c 0,0 -10.20491,2.21707 -24.45181,3.15352 0.80039,-2.03298 1.56076,-4.08997 2.26509,-6.15497 13.05432,1.01649 22.18672,3.00145 22.18672,3.00145" />
      <path
         d="m 219.36352,279.01927 c 0,0 -4.70785,1.02347 -10.51527,1.02347 -5.80764,0 -10.51526,-1.02347 -10.51526,-1.02347 0,0 4.70762,-1.02371 10.51526,-1.02371 5.80742,0 10.51527,1.02371 10.51527,1.02371"
         style="fill:#cccccc;fill-opacity:1;fill-rule:nonzero;stroke:none;stroke-width:0.02291706"
         id="path2799"
         inkscape:connector-curvature="0" />
      <path
         inkscape:connector-curvature="0"
         id="path2229"
         style="fill:#b3b3b3;fill-opacity:1;fill-rule:nonzero;stroke:none;stroke-width:0.08003868"
         d="m 331.96394,278.69344 c 0,0 -16.44236,3.57533 -36.72575,3.57533 -20.28262,0 -36.72496,-3.57533 -36.72496,-3.57533 0,0 16.44234,-3.57453 36.72496,-3.57453 20.28339,0 36.72575,3.57453 36.72575,3.57453" />
      <path
         inkscape:connector-curvature="0"
         id="path2231"
         style="fill:#b3b3b3;fill-opacity:1;fill-rule:nonzero;stroke:none;stroke-width:0.08003868"
         d="m 347.42341,271.27065 c 0,0 -18.49373,2.13143 -41.30717,2.13143 -22.81343,0 -41.30796,-2.13143 -41.30796,-2.13143 0,0 18.49453,-2.13143 41.30796,-2.13143 22.81344,0 41.30717,2.13143 41.30717,2.13143" />
      <path
         inkscape:connector-curvature="0"
         id="path2233"
         style="fill:#c83737;fill-opacity:1;fill-rule:nonzero;stroke:none;stroke-width:0.08003868"
         d="m 155.05124,255.6351 v 17.19311 c 0,1.31343 1.0645,2.37394 2.37715,2.37394 h 39.79683 c 1.31183,0 2.37715,-1.06051 2.37715,-2.37394 V 255.6351 c 0,-1.31264 -1.06532,-2.37315 -2.37715,-2.37315 h -39.79683 c -1.31265,0 -2.37715,1.06051 -2.37715,2.37315" />
      <path
         inkscape:connector-curvature="0"
         id="path2235"
         style="fill:#ffffff;fill-opacity:1;fill-rule:nonzero;stroke:none;stroke-width:0.08003868"
         d="m 158.39606,258.61174 h 37.86149 v -1.96415 h -37.86149 v 1.96415" />
      <path
         inkscape:connector-curvature="0"
         id="path2237"
         style="fill:#ffffff;fill-opacity:1;fill-rule:nonzero;stroke:none;stroke-width:0.08003868"
         d="m 158.39606,263.01306 h 37.86149 v -1.96415 h -37.86149 v 1.96415" />
      <path
         inkscape:connector-curvature="0"
         id="path2239"
         style="fill:#ffffff;fill-opacity:1;fill-rule:nonzero;stroke:none;stroke-width:0.08003868"
         d="m 158.39606,267.41439 h 37.86149 v -1.96495 h -37.86149 v 1.96495" />
      <path
         inkscape:connector-curvature="0"
         id="path2241"
         style="fill:#ffffff;fill-opacity:1;fill-rule:nonzero;stroke:none;stroke-width:0.08003868"
         d="m 184.35579,271.81492 h 11.90176 v -1.96415 h -11.90176 v 1.96415" />
      <path
         inkscape:connector-curvature="0"
         id="path2243"
         style="fill:#ffffff;fill-opacity:1;fill-rule:nonzero;stroke:none;stroke-width:0.08003868"
         d="m 253.62047,234.65456 v 32.17555 c 0,2.45558 1.99216,4.44054 4.44776,4.44054 h 45.04415 c 2.4556,0 4.44776,-1.98496 4.44776,-4.44054 v -32.17555 c 0,-2.45639 -1.99216,-4.44055 -4.44776,-4.44055 h -45.04415 c -2.4556,0 -4.44776,1.98416 -4.44776,4.44055" />
      <path
         inkscape:connector-curvature="0"
         id="path2245"
         style="fill:#161516;fill-opacity:1;fill-rule:nonzero;stroke:none;stroke-width:0.08003868"
         d="m 253.62047,234.65456 v 2.46359 h 53.93967 v -2.46359 c 0,-2.45639 -1.99216,-4.44055 -4.44776,-4.44055 h -45.04415 c -2.4556,0 -4.44776,1.98416 -4.44776,4.44055" />
      <path
         inkscape:connector-curvature="0"
         id="path2247"
         style="fill:#ffffff;fill-opacity:1;fill-rule:nonzero;stroke:none;stroke-width:0.08003868"
         d="m 302.7042,233.99424 c 0,0.51545 0.417,0.93325 0.93243,0.93325 0.51545,0 0.93246,-0.4178 0.93246,-0.93325 0,-0.51465 -0.41701,-0.93325 -0.93246,-0.93325 -0.51543,0 -0.93243,0.4186 -0.93243,0.93325" />
      <path
         inkscape:connector-curvature="0"
         id="path2249"
         style="fill:#ffffff;fill-opacity:1;fill-rule:nonzero;stroke:none;stroke-width:0.08003868"
         d="m 298.97118,233.99424 c 0,0.51545 0.41701,0.93325 0.93246,0.93325 0.51545,0 0.93326,-0.4178 0.93326,-0.93325 0,-0.51465 -0.41781,-0.93325 -0.93326,-0.93325 -0.51545,0 -0.93246,0.4186 -0.93246,0.93325" />
      <path
         inkscape:connector-curvature="0"
         id="path2251"
         style="fill:#ffffff;fill-opacity:1;fill-rule:nonzero;stroke:none;stroke-width:0.08003868"
         d="m 295.23819,233.99424 c 0,0.51545 0.4178,0.93325 0.93325,0.93325 0.51464,0 0.93244,-0.4178 0.93244,-0.93325 0,-0.51465 -0.4178,-0.93325 -0.93244,-0.93325 -0.51545,0 -0.93325,0.4186 -0.93325,0.93325" />
      <path
         inkscape:connector-curvature="0"
         id="path2253"
         style="fill:#3f2c90;fill-opacity:1;fill-rule:nonzero;stroke:none;stroke-width:0.08003868"
         d="m 260.94402,250.74233 h 39.29178 c 0.78997,0 1.4303,-0.64031 1.4303,-1.43029 v -7.35555 c 0,-0.79078 -0.64033,-1.4303 -1.4303,-1.4303 h -39.29178 c -0.78919,0 -1.42949,0.63952 -1.42949,1.4303 v 7.35555 c 0,0.78998 0.6403,1.43029 1.42949,1.43029" />
      <path
         inkscape:connector-curvature="0"
         id="path2255"
         style="fill:#39a89e;fill-opacity:1;fill-rule:nonzero;stroke:none;stroke-width:0.08003868"
         d="m 259.51453,255.78077 h 41.83861 v -1.96495 h -41.83861 v 1.96495" />
      <path
         inkscape:connector-curvature="0"
         id="path2257"
         style="fill:#39a89e;fill-opacity:1;fill-rule:nonzero;stroke:none;stroke-width:0.08003868"
         d="m 259.51453,260.6127 h 41.83861 v -1.96415 h -41.83861 v 1.96415" />
      <path
         inkscape:connector-curvature="0"
         id="path2259"
         style="fill:#39a89e;fill-opacity:1;fill-rule:nonzero;stroke:none;stroke-width:0.08003868"
         d="m 280.43423,265.44544 h 20.91891 v -1.96495 h -20.91891 v 1.96495" />
      <path
         inkscape:connector-curvature="0"
         id="path2261"
         style="fill:#800000;fill-opacity:1;fill-rule:nonzero;stroke:none;stroke-width:0.08003868"
         d="m 185.18981,243.08423 c 0,-2.23308 1.81046,-4.04355 4.04275,-4.04355 2.23308,0 4.04434,1.81047 4.04434,4.04355 0,2.23308 -1.81126,4.04356 -4.04434,4.04356 -2.23229,0 -4.04275,-1.81048 -4.04275,-4.04356 z m -6.09095,-1.14695 v 2.29311 c 0,0.53305 0.43221,0.96526 0.96527,0.96526 h 1.93452 c 0.15451,0.53066 0.36179,1.0381 0.62352,1.51353 l -1.36467,1.36466 c -0.37778,0.37779 -0.37778,0.98928 0,1.36546 l 1.61998,1.62079 c 0.37698,0.37698 0.98847,0.37698 1.36546,0 l 1.36546,-1.36466 c 0.47464,0.26092 0.98288,0.46902 1.51353,0.6235 v 1.93373 c 0,0.53306 0.43221,0.96527 0.96526,0.96527 h 2.29232 c 0.53306,0 0.96527,-0.43221 0.96527,-0.96527 v -1.93373 c 0.53065,-0.15448 1.03809,-0.36258 1.51432,-0.6235 l 1.36467,1.36466 c 0.37619,0.37698 0.98768,0.37698 1.36466,0 l 1.62078,-1.62079 c 0.37698,-0.37618 0.37698,-0.98767 0,-1.36546 l -1.36465,-1.36466 c 0.26091,-0.47543 0.46901,-0.98287 0.62349,-1.51353 h 1.93374 c 0.53305,0 0.96606,-0.43221 0.96606,-0.96526 v -2.29311 c 0,-0.53306 -0.43301,-0.96447 -0.96606,-0.96447 h -1.93374 c -0.1545,-0.53065 -0.36258,-1.0389 -0.62349,-1.51353 l 1.36465,-1.36546 c 0.37698,-0.37698 0.37698,-0.98848 0,-1.36466 l -1.62078,-1.62158 c -0.37698,-0.37699 -0.98847,-0.37699 -1.36466,0 l -1.36467,1.36546 c -0.47623,-0.26173 -0.98367,-0.46983 -1.51432,-0.6235 V 233.915 c 0,-0.53306 -0.43221,-0.96527 -0.96527,-0.96527 h -2.29232 c -0.53305,0 -0.96526,0.43221 -0.96526,0.96527 v 1.93454 c -0.53065,0.15366 -1.03889,0.36177 -1.51353,0.6235 l -1.36546,-1.36546 c -0.37699,-0.37699 -0.98848,-0.37699 -1.36546,0 l -1.61998,1.62158 c -0.37778,0.37618 -0.37778,0.98768 0,1.36466 l 1.36467,1.36546 c -0.26173,0.47463 -0.46903,0.98288 -0.62352,1.51353 h -1.93452 c -0.53306,0 -0.96527,0.43141 -0.96527,0.96447" />
      <path
         inkscape:connector-curvature="0"
         id="path2263"
         style="fill:#800000;fill-opacity:1;fill-rule:nonzero;stroke:none;stroke-width:0.08003868"
         d="m 208.05445,275.20215 h 63.93009 c 3.49529,0 6.32867,-2.83337 6.32867,-6.32865 V 155.47709 c 0,-3.49449 -2.83338,-6.32786 -6.32867,-6.32786 h -63.93009 c -3.49449,0 -6.32786,2.83337 -6.32786,6.32786 V 268.8735 c 0,3.49528 2.83337,6.32865 6.32786,6.32865" />
      <path
         inkscape:connector-curvature="0"
         id="path2265"
         style="fill:#aa0000;fill-opacity:1;fill-rule:nonzero;stroke:none;stroke-width:0.08003868"
         d="m 204.36386,156.19664 v 111.95731 c 0,2.64528 2.14344,4.78871 4.78792,4.78871 h 61.73624 c 2.64448,0 4.7871,-2.14343 4.7871,-4.78791 V 156.19664 c 0,-2.64448 -2.14262,-4.78871 -4.7871,-4.78871 h -61.73624 c -2.64448,0 -4.78792,2.14423 -4.78792,4.78871" />
      <path
         inkscape:connector-curvature="0"
         id="path2267"
         style="fill:#550000;fill-opacity:1;fill-rule:nonzero;stroke:none;stroke-width:0.08003868"
         d="m 272.1014,156.44236 v 108.58048 c 0,2.52682 -1.98657,4.57901 -4.43734,4.57901 h -55.28911 c -2.45159,0 -4.43415,-2.05219 -4.43415,-4.57901 V 156.44236 h 64.1606" />
      <path
         inkscape:connector-curvature="0"
         id="path2269"
         style="fill:#aa0000;fill-opacity:1;fill-rule:nonzero;stroke:none;stroke-width:0.08003868"
         d="m 232.81682,161.52722 h 14.40696 c 1.85609,0 3.56492,-1.01089 4.45894,-2.63808 l 2.48202,-4.51978 h -28.28967 l 2.48199,4.51978 c 0.89405,1.62719 2.60287,2.63808 4.45976,2.63808" />
      <path
         inkscape:connector-curvature="0"
         id="path2271"
         style="fill:#800000;fill-opacity:1;fill-rule:nonzero;stroke:none;stroke-width:0.08003868"
         d="m 233.66762,158.6042 h 12.70456 c 0.54266,0 0.98206,-0.43941 0.98206,-0.98207 0,-0.54266 -0.4394,-0.98208 -0.98206,-0.98208 h -12.70456 c -0.54265,0 -0.98287,0.43942 -0.98287,0.98208 0,0.54266 0.44022,0.98207 0.98287,0.98207" />
      <path
         inkscape:connector-curvature="0"
         id="path2273"
         style="fill:#ffffff;fill-opacity:1;fill-rule:nonzero;stroke:none;stroke-width:0.08003868"
         d="m 278.31321,177.94395 h 2.27709 v -8.64418 h -2.27709 v 8.64418" />
      <path
         inkscape:connector-curvature="0"
         id="path2275"
         style="fill:#ffffff;fill-opacity:1;fill-rule:nonzero;stroke:none;stroke-width:0.08003868"
         d="m 278.31321,191.5001 h 2.27709 v -8.64498 h -2.27709 v 8.64498" />
      <path
         inkscape:connector-curvature="0"
         id="path2277"
         style="fill:#ffffff;fill-opacity:1;fill-rule:nonzero;stroke:none;stroke-width:0.08003868"
         d="m 199.4495,177.94395 h 2.27709 v -8.64418 h -2.27709 v 8.64418" />
      <path
         inkscape:connector-curvature="0"
         id="path2279"
         style="fill:#ffffff;fill-opacity:1;fill-rule:nonzero;stroke:none;stroke-width:0.08003868"
         d="m 221.8067,242.32947 v 0 c 5.03522,0 9.1172,-4.08278 9.1172,-9.11881 0,-5.03603 -4.08198,-9.11801 -9.1172,-9.11801 -5.03604,0 -9.11881,4.08198 -9.11881,9.11801 0,5.03603 4.08277,9.11881 9.11881,9.11881" />
      <path
         inkscape:connector-curvature="0"
         id="path2281"
         style="fill:#800000;fill-opacity:1;fill-rule:nonzero;stroke:none;stroke-width:0.08003868"
         d="m 219.90258,235.13639 c 0.43221,0 0.8292,0.14087 1.15575,0.37378 l 2.33634,-1.67281 c -0.0665,-0.1977 -0.1105,-0.40659 -0.1105,-0.6267 0,-0.2193 0.044,-0.42821 0.1105,-0.6259 l -2.33634,-1.67281 c -0.32655,0.23291 -0.72354,0.37298 -1.15575,0.37298 -1.10374,0 -1.99776,-0.89403 -1.99776,-1.99777 0,-1.10373 0.89402,-1.99776 1.99776,-1.99776 1.10373,0 1.99775,0.89403 1.99775,1.99776 0,0.24172 -0.0497,0.47143 -0.12796,0.68594 l 2.30752,1.65199 c 0.33456,-0.25532 0.74837,-0.4122 1.2022,-0.4122 1.10373,0 1.99935,0.89404 1.99935,1.99777 0,1.10373 -0.89562,1.99857 -1.99935,1.99857 -0.45383,0 -0.86764,-0.15687 -1.2022,-0.4122 l -2.30752,1.65199 c 0.0785,0.21452 0.12796,0.44422 0.12796,0.68594 0,1.10373 -0.89402,1.99776 -1.99775,1.99776 -1.10374,0 -1.99776,-0.89403 -1.99776,-1.99776 0,-1.10374 0.89402,-1.99857 1.99776,-1.99857" />
      <path
         inkscape:connector-curvature="0"
         id="path2283"
         style="fill:#ffffff;fill-opacity:1;fill-rule:nonzero;stroke:none;stroke-width:0.08003868"
         d="m 253.01458,185.27469 h 12.23551 c 1.14296,0 2.06979,-0.92604 2.06979,-2.0698 v -12.23551 c 0,-1.14295 -0.92683,-2.0698 -2.06979,-2.0698 h -12.23551 c -1.14375,0 -2.06981,0.92685 -2.06981,2.0698 v 12.23551 c 0,1.14376 0.92606,2.0698 2.06981,2.0698" />
      <path
         inkscape:connector-curvature="0"
         id="path2285"
         style="fill:#aa0000;fill-opacity:1;fill-rule:nonzero;stroke:none;stroke-width:0.08003868"
         d="m 255.65905,173.74112 c 1.8305,-1.38707 3.47289,0.53786 3.47289,0.53786 0,0 1.64319,-1.92493 3.47367,-0.53786 1.17417,0.88923 1.55756,2.4788 0.94927,3.82024 -1.09253,2.41157 -4.42294,4.04676 -4.42294,4.04676 0,0 -3.32962,-1.63519 -4.42214,-4.04676 -0.6083,-1.34144 -0.22484,-2.93101 0.94925,-3.82024" />
      <path
         inkscape:connector-curvature="0"
         id="path2287"
         style="fill:#800000;fill-opacity:1;fill-rule:nonzero;stroke:none;stroke-width:0.08003868"
         d="m 233.90294,185.27469 h 12.23632 c 1.14294,0 2.0698,-0.92604 2.0698,-2.0698 v -12.23551 c 0,-1.14295 -0.92686,-2.0698 -2.0698,-2.0698 h -12.23632 c -1.14296,0 -2.06979,0.92685 -2.06979,2.0698 v 12.23551 c 0,1.14376 0.92683,2.0698 2.06979,2.0698" />
      <path
         inkscape:connector-curvature="0"
         id="path2289"
         style="fill:#d40000;fill-opacity:1;fill-rule:nonzero;stroke:none;stroke-width:0.08003868"
         d="m 214.7921,185.27469 h 12.23552 c 1.14376,0 2.0698,-0.92604 2.0698,-2.0698 v -12.23551 c 0,-1.14295 -0.92604,-2.0698 -2.0698,-2.0698 H 214.7921 c -1.14294,0 -2.06979,0.92685 -2.06979,2.0698 v 12.23551 c 0,1.14376 0.92685,2.0698 2.06979,2.0698" />
      <path
         inkscape:connector-curvature="0"
         id="path2291"
         style="fill:#ffffff;fill-opacity:1;fill-rule:nonzero;stroke:none;stroke-width:0.08003868"
         d="m 238.49557,224.61371 v 17.19391 c 0,1.31263 1.0645,2.37314 2.37714,2.37314 h 24.07002 c 1.31265,0 2.37715,-1.06051 2.37715,-2.37314 v -17.19391 c 0,-1.31264 -1.0645,-2.37315 -2.37715,-2.37315 h -24.07002 c -1.31264,0 -2.37714,1.06051 -2.37714,2.37315" />
      <path
         inkscape:connector-curvature="0"
         id="path2293"
         style="fill:#39a89e;fill-opacity:1;fill-rule:nonzero;stroke:none;stroke-width:0.08003868"
         d="m 241.84039,227.59114 h 22.13388 V 225.627 h -22.13388 v 1.96414" />
      <path
         inkscape:connector-curvature="0"
         id="path2295"
         style="fill:#39a89e;fill-opacity:1;fill-rule:nonzero;stroke:none;stroke-width:0.08003868"
         d="m 241.84039,231.99327 h 22.13388 v -1.96575 h -22.13388 v 1.96575" />
      <path
         inkscape:connector-curvature="0"
         id="path2297"
         style="fill:#39a89e;fill-opacity:1;fill-rule:nonzero;stroke:none;stroke-width:0.08003868"
         d="m 241.84039,236.3938 h 22.13388 v -1.96495 h -22.13388 v 1.96495" />
      <path
         inkscape:connector-curvature="0"
         id="path2299"
         style="fill:#39a89e;fill-opacity:1;fill-rule:nonzero;stroke:none;stroke-width:0.08003868"
         d="m 252.07332,240.79513 h 11.90095 v -1.96495 h -11.90095 v 1.96495" />
      <path
         inkscape:connector-curvature="0"
         id="path2301"
         style="fill:#d40000;fill-opacity:1;fill-rule:nonzero;stroke:none;stroke-width:0.08003868"
         d="m 232.30776,185.51001 12.07465,1.97855 c 1.12774,0.18409 2.19226,-0.58028 2.37635,-1.70802 l 1.97855,-12.07544 c 0.1849,-1.12774 -0.57948,-2.19146 -1.70801,-2.37635 l -12.07544,-1.97855 c -1.12776,-0.18489 -2.19226,0.58028 -2.37636,1.70802 l -1.97856,12.07544 c -0.184,1.12774 0.58029,2.19226 1.70882,2.37635" />
      <path
         inkscape:connector-curvature="0"
         id="path2303"
         style="fill:#ffffff;fill-opacity:1;fill-rule:nonzero;stroke:none;stroke-width:0.08003868"
         d="m 240.41809,173.84277 -1.8945,2.37315 -3.03427,0.10565 1.672,2.53403 -0.83801,2.91821 2.92782,-0.80679 2.5164,1.69842 0.13681,-3.03267 2.39317,-1.8689 -2.84216,-1.06772 -1.03731,-2.85337" />
      <path
         inkscape:connector-curvature="0"
         id="path2305"
         style="fill:#4e3398;fill-opacity:1;fill-rule:nonzero;stroke:none;stroke-width:0.08003868"
         d="m 213.07529,264.50418 h 53.89163 c 1.33824,0 2.42436,-1.08612 2.42436,-2.42517 V 250.8808 c 0,-1.33905 -1.08612,-2.42437 -2.42436,-2.42437 h -53.89163 c -1.33826,0 -2.42439,1.08532 -2.42439,2.42437 v 11.19821 c 0,1.33905 1.08613,2.42517 2.42439,2.42517" />
      <path
         inkscape:connector-curvature="0"
         id="path2307"
         style="fill:#800000;fill-opacity:1;fill-rule:nonzero;stroke:none;stroke-width:0.08003868"
         d="m 213.07529,217.32378 h 53.89163 c 1.33824,0 2.42436,-1.08532 2.42436,-2.42437 V 203.7012 c 0,-1.33905 -1.08612,-2.42437 -2.42436,-2.42437 h -53.89163 c -1.33826,0 -2.42439,1.08532 -2.42439,2.42437 v 11.19821 c 0,1.33905 1.08613,2.42437 2.42439,2.42437" />
      <path
         inkscape:connector-curvature="0"
         id="path2309"
         style="fill:#d40000;fill-opacity:1;fill-rule:nonzero;stroke:none;stroke-width:0.08003868"
         d="m 233.93657,217.32378 h 53.89002 c 1.33906,0 2.42439,-1.08532 2.42439,-2.42437 V 203.7012 c 0,-1.33905 -1.08533,-2.42437 -2.42439,-2.42437 h -53.89002 c -1.33985,0 -2.42439,1.08532 -2.42439,2.42437 v 11.19821 c 0,1.33905 1.08454,2.42437 2.42439,2.42437" />
      <path
         inkscape:connector-curvature="0"
         id="path2311"
         style="fill:#ffffff;fill-opacity:1;fill-rule:nonzero;stroke:none;stroke-width:0.08003868"
         d="m 277.64729,214.43999 h 9.1172 c 0.47223,0 0.85401,-0.38339 0.85401,-0.85481 v -8.56975 c 0,-0.47142 -0.38178,-0.85401 -0.85401,-0.85401 h -9.1172 c -0.47144,0 -0.85321,0.38259 -0.85321,0.85401 v 8.56975 c 0,0.47142 0.38177,0.85481 0.85321,0.85481" />
      <path
         inkscape:connector-curvature="0"
         id="path2313"
         style="fill:#ffffff;fill-opacity:1;fill-rule:nonzero;stroke:none;stroke-width:0.08003868"
         d="m 234.14387,206.31286 h 39.78323 v -1.47351 h -39.78323 v 1.47351" />
      <path
         inkscape:connector-curvature="0"
         id="path2315"
         style="fill:#ffffff;fill-opacity:1;fill-rule:nonzero;stroke:none;stroke-width:0.08003868"
         d="m 260.76471,210.03706 h 13.16239 v -1.47351 h -13.16239 v 1.47351" />
      <path
         inkscape:connector-curvature="0"
         id="path2317"
         style="fill:#ffffff;fill-opacity:1;fill-rule:nonzero;stroke:none;stroke-width:0.08003868"
         d="m 234.14387,210.03706 h 22.5925 v -1.47351 h -22.5925 v 1.47351" />
      <path
         inkscape:connector-curvature="0"
         id="path2319"
         style="fill:#ffffff;fill-opacity:1;fill-rule:nonzero;stroke:none;stroke-width:0.08003868"
         d="m 251.33376,213.76126 h 22.59334 v -1.47351 h -22.59334 v 1.47351" />
      <path
         inkscape:connector-curvature="0"
         id="path2321"
         style="fill:#f14e41;fill-opacity:1;fill-rule:nonzero;stroke:none;stroke-width:0.08003868"
         d="m 197.72066,264.39613 h 53.89005 c 1.33903,0 2.42436,-1.08532 2.42436,-2.42437 v -11.19821 c 0,-1.33825 -1.08533,-2.42437 -2.42436,-2.42437 h -53.89005 c -1.33905,0 -2.42438,1.08612 -2.42438,2.42437 v 11.19821 c 0,1.33905 1.08533,2.42437 2.42438,2.42437" />
      <path
         inkscape:connector-curvature="0"
         id="path2323"
         style="fill:#ffffff;fill-opacity:1;fill-rule:nonzero;stroke:none;stroke-width:0.08003868"
         d="m 241.43139,261.51154 h 9.11799 c 0.47144,0 0.85321,-0.38179 0.85321,-0.85401 v -8.56975 c 0,-0.47222 -0.38177,-0.85401 -0.85321,-0.85401 h -9.11799 c -0.47144,0 -0.85321,0.38179 -0.85321,0.85401 v 8.56975 c 0,0.47222 0.38177,0.85401 0.85321,0.85401" />
      <path
         inkscape:connector-curvature="0"
         id="path2325"
         style="fill:#ffffff;fill-opacity:1;fill-rule:nonzero;stroke:none;stroke-width:0.08003868"
         d="m 197.92876,253.38521 h 39.78243 v -1.47351 h -39.78243 v 1.47351" />
      <path
         inkscape:connector-curvature="0"
         id="path2327"
         style="fill:#ffffff;fill-opacity:1;fill-rule:nonzero;stroke:none;stroke-width:0.08003868"
         d="m 224.54802,257.10941 h 13.16317 v -1.47351 h -13.16317 v 1.47351" />
      <path
         inkscape:connector-curvature="0"
         id="path2329"
         style="fill:#ffffff;fill-opacity:1;fill-rule:nonzero;stroke:none;stroke-width:0.08003868"
         d="m 197.92876,257.10941 h 22.59173 v -1.47351 h -22.59173 v 1.47351" />
      <path
         inkscape:connector-curvature="0"
         id="path2331"
         style="fill:#ffffff;fill-opacity:1;fill-rule:nonzero;stroke:none;stroke-width:0.08003868"
         d="m 215.11788,260.83361 h 22.59331 v -1.47351 h -22.59331 v 1.47351" />
      <path
         inkscape:connector-curvature="0"
         id="path2333"
         style="fill:#d40000;fill-opacity:1;fill-rule:nonzero;stroke:none;stroke-width:0.08003868"
         d="m 172.29798,188.06404 v 27.18754 c 0,2.0746 1.68321,3.75141 3.75861,3.75141 h 38.0592 c 2.07539,0 3.7586,-1.67681 3.7586,-3.75141 v -27.18754 c 0,-2.0746 -1.68321,-3.75141 -3.7586,-3.75141 h -38.0592 c -2.0754,0 -3.75861,1.67681 -3.75861,3.75141" />
      <path
         inkscape:connector-curvature="0"
         id="path2335"
         style="fill:#ff2a2a;fill-opacity:1;fill-rule:nonzero;stroke:none;stroke-width:0.08003868"
         d="m 172.29798,188.06404 v 2.08181 h 45.57641 v -2.08181 c 0,-2.0746 -1.68321,-3.75141 -3.7586,-3.75141 h -38.0592 c -2.0754,0 -3.75861,1.67681 -3.75861,3.75141" />
      <path
         inkscape:connector-curvature="0"
         id="path2337"
         style="fill:#ffffff;fill-opacity:1;fill-rule:nonzero;stroke:none;stroke-width:0.08003868"
         d="m 213.77161,187.50697 c 0,0.43541 0.35219,0.78838 0.78759,0.78838 0.43541,0 0.78758,-0.35297 0.78758,-0.78838 0,-0.43541 -0.35217,-0.78838 -0.78758,-0.78838 -0.4354,0 -0.78759,0.35297 -0.78759,0.78838" />
      <path
         inkscape:connector-curvature="0"
         id="path2339"
         style="fill:#ffffff;fill-opacity:1;fill-rule:nonzero;stroke:none;stroke-width:0.08003868"
         d="m 210.6173,187.50697 c 0,0.43541 0.35296,0.78838 0.78837,0.78838 0.43541,0 0.78759,-0.35297 0.78759,-0.78838 0,-0.43541 -0.35218,-0.78838 -0.78759,-0.78838 -0.43541,0 -0.78837,0.35297 -0.78837,0.78838" />
      <path
         inkscape:connector-curvature="0"
         id="path2341"
         style="fill:#ffffff;fill-opacity:1;fill-rule:nonzero;stroke:none;stroke-width:0.08003868"
         d="m 207.46297,187.50697 c 0,0.43541 0.35296,0.78838 0.78837,0.78838 0.43543,0 0.78839,-0.35297 0.78839,-0.78838 0,-0.43541 -0.35296,-0.78838 -0.78839,-0.78838 -0.43541,0 -0.78837,0.35297 -0.78837,0.78838" />
      <path
         inkscape:connector-curvature="0"
         id="path2343"
         style="fill:#ffffff;fill-opacity:1;fill-rule:nonzero;stroke:none;stroke-width:0.08003868"
         d="m 178.48655,201.65781 h 33.19925 c 0.66753,0 1.20859,-0.54106 1.20859,-1.20858 v -6.21501 c 0,-0.66752 -0.54106,-1.20858 -1.20859,-1.20858 h -33.19925 c -0.6675,0 -1.20857,0.54106 -1.20857,1.20858 v 6.21501 c 0,0.66752 0.54107,1.20858 1.20857,1.20858" />
      <path
         inkscape:connector-curvature="0"
         id="path2345"
         style="fill:#ffffff;fill-opacity:1;fill-rule:nonzero;stroke:none;stroke-width:0.08003868"
         d="m 177.27798,205.91507 h 35.35228 v -1.66 h -35.35228 v 1.66" />
      <path
         inkscape:connector-curvature="0"
         id="path2347"
         style="fill:#ffffff;fill-opacity:1;fill-rule:nonzero;stroke:none;stroke-width:0.08003868"
         d="m 177.27798,209.99864 h 35.35228 v -1.66 h -35.35228 v 1.66" />
      <path
         inkscape:connector-curvature="0"
         id="path2349"
         style="fill:#ffffff;fill-opacity:1;fill-rule:nonzero;stroke:none;stroke-width:0.08003868"
         d="m 194.95453,214.08222 h 17.67573 v -1.66081 h -17.67573 v 1.66081" />
      <path
         inkscape:connector-curvature="0"
         id="path2351"
         style="fill:#161516;fill-opacity:1;fill-rule:nonzero;stroke:none;stroke-width:0.08003868"
         d="m 159.71589,275.83526 0.20896,-1.27662 3.1031,0.77238 c 0,0 1.48312,0.85561 2.77174,1.92573 0.53785,0.44981 1.0413,0.93645 1.38706,1.41508 l 0.007,0.012 -7.55324,-2.39475 0.076,-0.45382" />
      <path
         inkscape:connector-curvature="0"
         id="path2353"
         style="fill:#ffffff;fill-opacity:1;fill-rule:nonzero;stroke:none;stroke-width:0.08003868"
         d="m 167.19311,278.68384 c 0.23371,0.34176 -0.0824,0.79718 -0.48984,0.69633 l -7.27552,-1.81047 0.21214,-1.28062 7.55324,2.39476" />
      <path
         inkscape:connector-curvature="0"
         id="path2355"
         style="fill:#161516;fill-opacity:1;fill-rule:nonzero;stroke:none;stroke-width:0.08003868"
         d="m 172.59011,275.84887 -0.0817,-1.29023 3.19673,0.0568 c 0,0 1.63761,0.50104 3.13353,1.2558 0.46982,0.23932 0.92604,0.50345 1.31262,0.78518 l -7.50923,0.0376 -0.052,-0.84521" />
      <path
         inkscape:connector-curvature="0"
         id="path2357"
         style="fill:#ffffff;fill-opacity:1;fill-rule:nonzero;stroke:none;stroke-width:0.08003868"
         d="m 180.15136,276.65646 c 0.12638,0.092 0.24653,0.18649 0.35618,0.28253 0.31936,0.27854 0.11208,0.80679 -0.31216,0.79879 l -7.49641,-0.13286 -0.0567,-0.91084 7.50923,-0.0376" />
      <path
         inkscape:connector-curvature="0"
         id="path2359"
         style="fill:#aa0000;fill-opacity:1;fill-rule:nonzero;stroke:none;stroke-width:0.08003868"
         d="m 163.61857,258.90308 c -0.13454,-0.31616 -4.90315,-29.35259 -4.90315,-29.35259 7.58765,-0.74436 14.56303,-2.59966 14.56303,-2.59966 l 6.61359,30.15858 c 0,0 -2.16744,8.31602 -3.1183,12.60609 -0.59389,2.71972 -1.06852,4.89917 -1.06852,4.89917 l -3.19914,-0.0544 c 0,0 0.33456,-2.45959 0.75876,-5.40261 0.58508,-4.08597 1.34386,-9.09559 1.61519,-9.74471 l -5.92367,-17.61651 c 0,0 0.1089,17.28595 -0.0181,17.53887 -0.11367,0.22731 -2.2635,6.05813 -3.93712,10.61633 -1.04129,2.84058 -1.90172,5.18651 -1.96815,5.3666 l -0.005,0.012 -3.1039,-0.76997 c 0,0 0.64031,-2.50681 1.38708,-5.51626 1.09171,-4.40453 2.42037,-9.88558 2.30591,-10.14091" />
      <path
         inkscape:connector-curvature="0"
         id="path2361"
         style="fill:url(#linearGradient2825);fill-opacity:1;fill-rule:nonzero;stroke:none;stroke-width:0.08003868"
         d="m 156.84571,230.3973 c -0.20896,-2.41317 -0.95327,-18.49534 0.0465,-22.10028 2.23147,-8.05429 7.01939,-7.81818 7.01939,-7.81818 1.46549,3.40485 4.53579,1.10213 4.53579,1.10213 0,0 5.39061,3.26718 3.60494,12.1947 -1.15256,5.76278 1.18538,11.03893 2.98784,14.05799 -5.29695,3.67458 -12.17148,4.56541 -18.19438,2.56364" />
      <path
         inkscape:connector-curvature="0"
         id="path2363"
         style="fill:#f5f1d4;fill-opacity:1;fill-rule:nonzero;stroke:none;stroke-width:0.08003868"
         d="m 170.50591,191.94032 c 0,0 2.71732,7.70692 -1.64239,8.33122 -4.35971,0.6235 -6.47993,-2.23948 -6.47993,-4.16601 0,-1.92653 -0.35378,-5.69716 3.29919,-6.75767 3.65295,-1.06051 4.82313,2.59246 4.82313,2.59246" />
      <path
         inkscape:connector-curvature="0"
         id="path2365"
         style="fill:#f5f1d4;fill-opacity:1;fill-rule:nonzero;stroke:none;stroke-width:0.08003868"
         d="m 163.82907,197.68949 c 0,0.80359 -0.65151,1.45511 -1.4551,1.45511 -0.80359,0 -1.45511,-0.65152 -1.45511,-1.45511 0,-0.80358 0.65152,-1.4551 1.45511,-1.4551 0.80359,0 1.4551,0.65152 1.4551,1.4551" />
      <path
         inkscape:connector-curvature="0"
         id="path2367"
         style="fill:#ff2a2a;fill-opacity:1;fill-rule:nonzero;stroke:none;stroke-width:0.08003868"
         d="m 162.37397,189.15497 c 0.096,-0.0464 0.18899,-0.084 0.28253,-0.12647 0.45143,-0.54986 0.94927,-1.06051 1.49354,-1.51833 0.42499,-0.35697 0.87962,-0.68753 1.23818,-1.11094 0.35859,-0.4242 0.61791,-0.96766 0.56428,-1.52073 0.50826,0.53145 0.74916,1.30703 0.62991,2.03298 0.55788,-0.8236 0.72995,-1.89852 0.45621,-2.85578 0.89804,0.39059 1.56317,1.27342 1.69122,2.24429 0.33057,-0.94046 0.34577,-1.98817 0.0424,-2.93742 1.56956,0.45542 2.82056,1.8641 3.0879,3.47688 0.26733,1.61358 -0.46264,3.35042 -1.80167,4.28767 -0.61069,0.42741 -1.36067,0.68753 -2.09701,0.65552 0.17537,2.73492 -4.61425,4.82713 -4.61425,4.82713 -0.92204,-0.63311 -1.94653,0 -1.94653,0 -0.56988,0.54586 -0.48182,1.07972 -0.48182,1.07972 0,0 -4.37734,-5.76599 1.4551,-8.53452" />
      <path
         inkscape:connector-curvature="0"
         id="path2369"
         style="fill:#f5f1d4;fill-opacity:1;fill-rule:nonzero;stroke:none;stroke-width:0.08003868"
         d="m 162.91344,197.40535 v 1.10454 c 0,0 0.009,0.19929 0.0361,0.51705 0.032,0.4202 0.0921,1.0453 0.1992,1.67601 0.16336,0.97887 0.4338,1.97856 0.86841,2.26749 0.92845,0.6187 4.02034,0.26493 4.41974,0 0.12478,-0.0832 0.10958,-0.64591 0.0297,-1.37506 -0.0449,-0.38979 -0.10482,-0.8244 -0.17288,-1.26141 h -0.002 c -0.20487,-1.32464 -0.47303,-2.64608 -0.47303,-2.64608 l -4.90494,-0.28254" />
      <path
         inkscape:connector-curvature="0"
         id="path2371"
         style="fill:#eae1b3;fill-opacity:1;fill-rule:nonzero;stroke:none;stroke-width:0.08003868"
         d="m 162.94945,199.02694 c 0.032,0.4202 0.0921,1.0453 0.1992,1.67601 1.30303,0.36257 3.9307,1.02369 5.31778,0.89243 -0.0449,-0.38979 -0.10482,-0.8244 -0.17288,-1.26141 h -0.002 c -0.14248,-0.006 -4.60623,-0.19049 -5.34099,-1.30703" />
      <path
         inkscape:connector-curvature="0"
         id="path2373"
         style="fill:#f5f1d4;fill-opacity:1;fill-rule:nonzero;stroke:none;stroke-width:0.08003868"
         d="m 166.20143,213.67242 c 0,0 14.73111,4.09798 19.84318,4.79111 0,0 2.31872,-2.49 2.29231,-1.72003 -0.0256,0.76917 -0.64992,1.91213 -0.64992,1.91213 0,0 5.3674,0.24812 3.11832,2.20906 -2.24909,1.96095 -4.88956,-0.45622 -4.88956,-0.45622 0,0 -18.52817,-0.0592 -21.68808,-1.83368 -3.15994,-1.77446 -8.78346,-10.40903 -5.24734,-13.83389 3.5369,-3.42565 6.55517,2.13223 7.22109,8.93152" />
      <path
         inkscape:connector-curvature="0"
         id="path2375"
         style="fill:#302f31;fill-opacity:1;fill-rule:nonzero;stroke:none;stroke-width:0.08003868"
         d="m 158.98034,204.7409 c 3.27919,-3.17593 6.11176,1.37186 7.03779,7.46921 l -5.2049,2.93982 c -2.40916,-3.35122 -4.23565,-8.0823 -1.83289,-10.40903" />
      <path
         inkscape:connector-curvature="0"
         id="path2377"
         style="fill:#f14e41;fill-opacity:1;fill-rule:nonzero;stroke:none;stroke-width:0.08003868"
         d="m 267.3455,278.71985 v 0 c 5.03603,0 9.11881,-4.08197 9.11881,-9.118 0,-5.03604 -4.08278,-9.11881 -9.11881,-9.11881 -5.03602,0 -9.118,4.08277 -9.118,9.11881 0,5.03603 4.08198,9.118 9.118,9.118" />
      <path
         inkscape:connector-curvature="0"
         id="path2379"
         style="fill:#ffffff;fill-opacity:1;fill-rule:nonzero;stroke:none;stroke-width:0.08003868"
         d="m 270.10124,267.30554 3.85546,1.55035 v 1.49112 l -3.85546,1.55115 v -1.30783 l 2.64768,-0.98848 -2.64768,-0.98928 v -1.30703" />
      <path
         inkscape:connector-curvature="0"
         id="path2381"
         style="fill:#ffffff;fill-opacity:1;fill-rule:nonzero;stroke:none;stroke-width:0.08003868"
         d="m 266.56993,265.00202 2.75812,9.19965 h -1.57596 l -2.75733,-9.19965 h 1.57517" />
      <path
         inkscape:connector-curvature="0"
         id="path2383"
         style="fill:#ffffff;fill-opacity:1;fill-rule:nonzero;stroke:none;stroke-width:0.08003868"
         d="m 264.59057,271.89816 -3.85626,-1.55115 v -1.49112 l 3.85626,-1.55035 v 1.30703 l -2.64927,0.98928 2.64927,0.98848 v 1.30783" />
      <path
         inkscape:connector-curvature="0"
         id="path2385"
         style="fill:#c83737;fill-opacity:1;fill-rule:nonzero;stroke:none;stroke-width:0.08003868"
         d="m 311.49165,251.86768 v 17.19391 c 0,1.31263 1.0653,2.37314 2.37715,2.37314 h 24.07002 c 1.31264,0 2.37714,-1.06051 2.37714,-2.37314 v -17.19391 c 0,-1.31264 -1.0645,-2.37315 -2.37714,-2.37315 H 313.8688 c -1.31185,0 -2.37715,1.06051 -2.37715,2.37315" />
      <path
         inkscape:connector-curvature="0"
         id="path2387"
         style="fill:#ff2a2a;fill-opacity:1;fill-rule:nonzero;stroke:none;stroke-width:0.08003868"
         d="m 314.68439,257.99624 c 0,3.01105 2.44118,5.45143 5.45144,5.45143 3.01105,0 5.45223,-2.44038 5.45223,-5.45143 0,-3.01106 -2.44118,-5.45224 -5.45223,-5.45224 -3.01026,0 -5.45144,2.44118 -5.45144,5.45224" />
      <path
         inkscape:connector-curvature="0"
         id="path2389"
         style="fill:#ffffff;fill-opacity:1;fill-rule:nonzero;stroke:none;stroke-width:0.08003868"
         d="m 311.49165,267.34075 v 1.72084 c 0,1.31263 1.0653,2.37314 2.37715,2.37314 h 24.07002 c 1.31264,0 2.37714,-1.06051 2.37714,-2.37314 v -1.72084 l -8.58493,-8.58495 -5.82763,5.83082 -5.83081,-5.83082 -8.58094,8.58495" />
      <path
         inkscape:connector-curvature="0"
         id="path2391"
         style="fill:#39a89e;fill-opacity:1;fill-rule:nonzero;stroke:none;stroke-width:0.08003868"
         d="m 252.90732,278.71985 v 0 c 5.03603,0 9.11881,-4.08197 9.11881,-9.118 0,-5.03604 -4.08278,-9.11881 -9.11881,-9.11881 -5.03602,0 -9.118,4.08277 -9.118,9.11881 0,5.03603 4.08198,9.118 9.118,9.118" />
      <path
         inkscape:connector-curvature="0"
         id="path2393"
         style="fill:#ffffff;fill-opacity:1;fill-rule:nonzero;stroke:none;stroke-width:0.08003868"
         d="m 255.66306,267.30554 3.85546,1.55035 v 1.49112 l -3.85546,1.55115 v -1.30783 l 2.64848,-0.98848 -2.64848,-0.98928 v -1.30703" />
      <path
         inkscape:connector-curvature="0"
         id="path2395"
         style="fill:#ffffff;fill-opacity:1;fill-rule:nonzero;stroke:none;stroke-width:0.08003868"
         d="m 252.13174,265.00202 2.75815,9.19965 h -1.57596 l -2.75733,-9.19965 h 1.57514" />
      <path
         inkscape:connector-curvature="0"
         id="path2397"
         style="fill:#ffffff;fill-opacity:1;fill-rule:nonzero;stroke:none;stroke-width:0.08003868"
         d="m 250.15239,271.89816 -3.85626,-1.55115 v -1.49112 l 3.85626,-1.55035 v 1.30703 l -2.64927,0.98928 2.64927,0.98848 v 1.30783" />
      <path
         inkscape:connector-curvature="0"
         id="path2399"
         style="fill:#ffffff;fill-opacity:1;fill-rule:nonzero;stroke:none;stroke-width:0.08003868"
         d="m 212.44937,267.14946 v -1.21578 c 0,-1.42229 -1.15655,-2.57885 -2.57803,-2.57885 -1.4223,0 -2.57967,1.15656 -2.57967,2.57885 v 1.21578 h -0.77477 v -1.21578 c 0,-1.8497 1.50474,-3.35363 3.35444,-3.35363 1.84888,0 3.3528,1.50393 3.3528,3.35363 v 1.21578 h -0.77477" />
      <path
         inkscape:connector-curvature="0"
         id="path2801"
         style="fill:#cccccc;fill-opacity:1;fill-rule:nonzero;stroke:none;stroke-width:0.02291706"
         d="m 234.86054,279.01927 c 0,0 -4.70785,1.02347 -10.51527,1.02347 -5.80764,0 -10.51526,-1.02347 -10.51526,-1.02347 0,0 4.70762,-1.02371 10.51526,-1.02371 5.80742,0 10.51527,1.02371 10.51527,1.02371" />
      <path
         inkscape:connector-curvature="0"
         id="path2401"
         style="fill:#ffffff;fill-opacity:1;fill-rule:nonzero;stroke:none;stroke-width:0.08003868"
         d="m 204.12135,266.35948 v 11.55278 c 0,0.44582 0.36258,0.80759 0.80919,0.80759 h 9.88077 c 0.44662,0 0.80841,-0.36177 0.80841,-0.80759 v -11.55278 h -11.49837" />
      <path
         inkscape:connector-curvature="0"
         id="path2403"
         style="fill:#f03ea8;fill-opacity:1;fill-rule:nonzero;stroke:none;stroke-width:0.08003868"
         d="m 204.12135,266.35948 v 2.6933 l 0.0288,0.0143 c 0.77399,0.35617 1.6448,-0.45943 2.4812,-0.31295 0.95726,0.16889 1.25581,1.39667 1.98576,2.04098 0.69874,0.6171 1.86891,0.60349 2.55323,-0.032 0.24092,-0.22652 0.43382,-0.52266 0.73636,-0.66112 0.60029,-0.27614 1.30144,0.22171 1.59437,0.81639 0.29374,0.59229 0.34497,1.27902 0.62991,1.87691 0.11457,0.24172 0.27614,0.47463 0.50585,0.60669 0.30493,0.17609 0.66992,0.13847 0.98288,-0.0288 v -7.01379 h -11.49837" />
      <path
         inkscape:connector-curvature="0"
         id="path2405"
         style="fill:#ffffff;fill-opacity:1;fill-rule:nonzero;stroke:none;stroke-width:0.08003868"
         d="m 221.64101,267.14946 v -1.21578 c 0,-1.42229 1.15657,-2.57885 2.57805,-2.57885 1.4223,0 2.57964,1.15656 2.57964,2.57885 v 1.21578 h 0.77478 v -1.21578 c 0,-1.8497 -1.50472,-3.35363 -3.35442,-3.35363 -1.8489,0 -3.35281,1.50393 -3.35281,3.35363 v 1.21578 h 0.77476" />
      <path
         inkscape:connector-curvature="0"
         id="path2407"
         style="fill:#ffffff;fill-opacity:1;fill-rule:nonzero;stroke:none;stroke-width:0.08003868"
         d="m 229.96905,266.35948 v 11.55278 c 0,0.44582 -0.36179,0.80759 -0.8092,0.80759 h -9.88158 c -0.4458,0 -0.80759,-0.36177 -0.80759,-0.80759 v -11.55278 h 11.49837" />
      <path
         inkscape:connector-curvature="0"
         id="path2409"
         style="fill:#f14e41;fill-opacity:1;fill-rule:nonzero;stroke:none;stroke-width:0.08003868"
         d="m 229.96905,266.35948 v 2.6933 l -0.0288,0.0143 c -0.77399,0.35617 -1.6448,-0.45943 -2.4812,-0.31295 -0.95728,0.16889 -1.25581,1.39667 -1.98578,2.04098 -0.69873,0.6171 -1.86889,0.60349 -2.55323,-0.032 -0.2409,-0.22652 -0.4338,-0.52266 -0.73555,-0.66112 -0.6011,-0.27614 -1.30223,0.22171 -1.59597,0.81639 -0.29295,0.59229 -0.34416,1.27902 -0.6291,1.87691 -0.11435,0.24172 -0.27614,0.47463 -0.50585,0.60669 -0.30496,0.17609 -0.66992,0.13847 -0.98288,-0.0288 v -7.01379 h 11.49837" />
      <path
         inkscape:connector-curvature="0"
         id="path2411"
         style="fill:#f14e41;fill-opacity:1;fill-rule:nonzero;stroke:none;stroke-width:0.08003868"
         d="m 301.76135,188.35618 c 1.09411,2.13543 1.57916,4.53179 1.83528,6.91694 0.0297,0.27694 0.0545,0.57068 -0.0681,0.8212 -0.15201,0.31455 -0.49383,0.48184 -0.8116,0.6243 -3.05108,1.35826 -6.24702,2.39156 -9.51579,3.07589 2.11622,-0.94846 3.25838,-3.64496 2.46679,-5.82522 -0.2313,-0.6371 -0.64112,-1.2542 -1.26702,-1.51433 -0.85641,-0.35537 -1.8913,0.0881 -2.44358,0.8332 -0.55227,0.74517 -0.70594,1.71443 -0.70433,2.64128 0.002,1.15016 0.21849,2.29951 0.63309,3.37123 -1.41508,-0.85481 -2.72691,-1.88011 -3.89707,-3.04787 -0.28333,-0.28254 -0.56668,-0.58588 -0.70435,-0.96127 -0.12887,-0.35297 -0.11934,-0.73875 -0.0992,-1.11333 0.0937,-1.73925 0.37939,-3.46808 0.85001,-5.14489 0.6291,-2.24108 1.76645,-4.57261 3.89308,-5.51547 4.12119,-1.82808 8.02227,1.30464 9.83276,4.83834" />
      <path
         inkscape:connector-curvature="0"
         id="path2413"
         style="fill:#302f31;fill-opacity:1;fill-rule:nonzero;stroke:none;stroke-width:0.08003868"
         d="m 286.14658,206.45933 c 0,0 -2.68448,7.00098 -3.93228,7.00098 -1.24622,0 -3.74021,-9.30289 -3.74021,-9.30289 l -3.7402,0.86281 c 0,0 2.14182,13.90753 6.49032,14.38696 4.3477,0.48023 8.74262,-6.68003 8.74262,-6.68003 l -3.82025,-6.26783" />
      <path
         inkscape:connector-curvature="0"
         id="path2415"
         style="fill:#aa0000;fill-opacity:1;fill-rule:nonzero;stroke:none;stroke-width:0.08003868"
         d="m 285.30619,226.2553 c 0,0 -4.03477,18.29604 -4.03477,22.1363 0,3.84025 -0.0472,25.63799 -0.0472,25.63799 h 4.03395 c 0,0 4.27728,-16.81373 3.9427,-23.71706 -0.0465,-0.95327 3.39124,-6.63521 4.55662,-10.73079 1.8577,-6.52796 1.63118,-12.15708 1.63118,-12.15708 L 285.3062,226.2553" />
      <path
         inkscape:connector-curvature="0"
         id="path2417"
         style="fill:#161516;fill-opacity:1;fill-rule:nonzero;stroke:none;stroke-width:0.08003868"
         d="m 277.24228,275.54552 c 1.90492,-0.91884 3.98193,-1.51513 3.98193,-1.51513 h 4.03556 l -0.13204,1.62639 -0.108,1.35345 -9.7247,-0.29534 c 0.54667,-0.42501 1.23099,-0.8212 1.94735,-1.16937" />
      <path
         inkscape:connector-curvature="0"
         id="path2419"
         style="fill:#ffffff;fill-opacity:1;fill-rule:nonzero;stroke:none;stroke-width:0.08003868"
         d="m 275.29494,276.71489 9.7247,0.29534 -0.0687,0.85961 h -9.46135 c -0.53547,0 -0.78519,-0.66992 -0.3762,-1.01489 l 0.18174,-0.14007" />
      <path
         inkscape:connector-curvature="0"
         id="path2421"
         style="fill:#d40000;fill-opacity:1;fill-rule:nonzero;stroke:none;stroke-width:0.08003868"
         d="m 292.19991,226.88761 c 0,0 0.26733,18.73385 1.14777,22.47165 0.87962,3.73781 5.8308,24.96647 5.8308,24.96647 l 3.92671,-0.92445 c 0,0 -0.26094,-17.45163 -1.59918,-23.98999 -0.19126,-0.93485 1.78007,-7.2355 1.97616,-11.48875 0.31135,-6.78088 -1.19897,-12.2083 -1.19897,-12.2083 l -10.08329,1.17337" />
      <path
         inkscape:connector-curvature="0"
         id="path2423"
         style="fill:#161516;fill-opacity:1;fill-rule:nonzero;stroke:none;stroke-width:0.08003868"
         d="m 295.64957,276.71409 c 1.64321,-1.33105 3.52891,-2.38756 3.52891,-2.38756 l 3.92832,-0.92445 0.2441,1.61278 0.15042,0.98768 -9.53019,2.35954 c 0.4394,-0.56027 1.0373,-1.12534 1.6784,-1.64799" />
      <path
         inkscape:connector-curvature="0"
         id="path2425"
         style="fill:#ffffff;fill-opacity:1;fill-rule:nonzero;stroke:none;stroke-width:0.08003868"
         d="m 293.97117,278.36208 9.5302,-2.35954 0.184,1.20698 -9.20925,2.16825 c -0.52106,0.12247 -0.91803,-0.47143 -0.59869,-0.90123 l 0.0937,-0.11446" />
      <path
         inkscape:connector-curvature="0"
         id="path2427"
         style="fill:#f5f1d4;fill-opacity:1;fill-rule:nonzero;stroke:none;stroke-width:0.08003868"
         d="m 297.95469,188.34738 v 3.19434 c 0,0.57868 -0.10482,1.13575 -0.29613,1.6472 -0.66914,1.78246 -2.38677,3.05347 -4.40454,3.05347 -2.59484,0 -4.69746,-2.10501 -4.69746,-4.70067 v -3.19434 l 0.002,-0.11446 c 0.0592,-1.81688 1.55114,-3.27199 3.38162,-3.27199 h 2.62846 c 1.83291,0 3.32402,1.45511 3.38326,3.27199 l 0.002,0.11446" />
      <path
         inkscape:connector-curvature="0"
         id="path2429"
         style="fill:#f5f1d4;fill-opacity:1;fill-rule:nonzero;stroke:none;stroke-width:0.08003868"
         d="m 297.95469,188.12727 -0.002,0.10566 c -0.0313,1.42149 -0.69315,2.6877 -1.71763,3.5313 -0.81081,0.66433 -1.8497,1.06372 -2.98065,1.06372 -2.51802,0 -4.57341,-1.98096 -4.69027,-4.47176 l -0.005,-0.12326 -0.002,-0.10566 c 0,-2.59486 2.10262,-4.69827 4.69746,-4.69827 2.59566,0 4.70067,2.10341 4.70067,4.69827" />
      <path
         inkscape:connector-curvature="0"
         id="path2431"
         style="fill:#ff5555;fill-opacity:1;fill-rule:nonzero;stroke:none;stroke-width:0.08003868"
         d="m 298.54698,191.64017 c 0,0.57868 -0.69714,1.0373 -0.88842,1.54875 l -3.22798,-3.22876 c -3.7618,1.56315 -5.74756,-1.41749 -5.86683,-1.60398 l -0.007,-0.009 0.002,-0.11446 -0.002,-0.10566 c 0,-2.59485 2.10262,-4.69827 4.69746,-4.69827 l 0.18173,0.002 c 3.62656,0.0584 6.25183,3.48489 5.40021,7.00979 l -0.28894,1.19978" />
      <path
         inkscape:connector-curvature="0"
         id="path2433"
         style="fill:#f5f1d4;fill-opacity:1;fill-rule:nonzero;stroke:none;stroke-width:0.08003868"
         d="m 298.75029,192.36292 c 0,0.76997 -0.6251,1.39427 -1.39509,1.39427 -0.76918,0 -1.39346,-0.6243 -1.39346,-1.39427 0,-0.76997 0.62428,-1.39428 1.39346,-1.39428 0.76999,0 1.39509,0.62431 1.39509,1.39428" />
      <path
         inkscape:connector-curvature="0"
         id="path2435"
         style="fill:url(#linearGradient2809);fill-opacity:1;fill-rule:nonzero;stroke:none;stroke-width:0.08003868"
         d="m 287.66492,214.40797 -2.35873,11.84733 c 3.43925,1.11494 7.08661,1.43749 10.66916,0.94446 l 6.8689,-0.94446 c -0.0329,-2.24669 -0.10958,-5.59391 -0.28254,-9.17964 -0.10323,-2.12663 -0.0592,-4.70067 -0.24171,-6.81609 -0.45302,-5.25694 -1.36867,-9.56142 -2.55963,-10.88446 l -2.17704,-1.12615 -8.77305,0.48344 c 0,0 -5.12007,7.38197 -3.90989,9.80073 1.20939,2.41877 2.76453,5.87484 2.76453,5.87484" />
      <path
         inkscape:connector-curvature="0"
         id="path2437"
         style="fill:#f5f1d4;fill-opacity:1;fill-rule:nonzero;stroke:none;stroke-width:0.08003868"
         d="m 288.81028,198.7324 0.92844,3.06148 c 0.4098,0.26493 0.89324,0.48743 1.45352,0.6211 l 1.00928,-1.39188 v 1.53435 c 0.0801,0.007 0.16494,0.007 0.24891,0.007 1.11254,0 2.25629,-0.32176 3.296,-0.75877 0.78197,-1.04451 1.82167,-2.60526 1.8369,-3.55692 l -1.17339,-0.60589 -0.6411,-3.7098 -4.12039,0.44822 -0.67472,3.13511 -2.16345,1.21579" />
      <path
         inkscape:connector-curvature="0"
         id="path2439"
         style="fill:#eae1b3;fill-opacity:1;fill-rule:nonzero;stroke:none;stroke-width:0.08003868"
         d="m 291.33549,195.8326 c 0,0 2.23549,1.34144 4.67827,-0.48664 l 0.29774,1.73044 -0.14725,0.0752 c -1.62317,0.834 -3.58813,0.6211 -4.99522,-0.54186 l 0.16653,-0.77718" />
      <path
         inkscape:connector-curvature="0"
         id="path2441"
         style="fill:#ffffff;fill-opacity:1;fill-rule:nonzero;stroke:none;stroke-width:0.08003868"
         d="m 292.20152,201.0231 v 2.62367 l 2.6885,-0.76757 c 0,0 0.38018,-0.44101 0.85641,-1.07332 0.78197,-1.0445 1.82167,-2.60526 1.8369,-3.55692 l -1.17339,-0.60589 -4.20842,3.38003" />
      <path
         inkscape:connector-curvature="0"
         id="path2443"
         style="fill:#ffffff;fill-opacity:1;fill-rule:nonzero;stroke:none;stroke-width:0.08003868"
         d="m 288.81028,198.7324 0.92844,3.06148 0.56349,1.85289 0.89003,-1.23179 1.00928,-1.39188 -1.22779,-3.50649 -2.16345,1.21579" />
      <path
         inkscape:connector-curvature="0"
         id="path2445"
         style="fill:#ffffff;fill-opacity:1;fill-rule:nonzero;stroke:none;stroke-width:0.08003868"
         d="m 286.49877,219.50403 9.03555,3.42166 4.47897,-11.82652 -9.03557,-3.42085 -4.47895,11.82571" />
      <path
         inkscape:connector-curvature="0"
         id="path2447"
         style="fill:#302f31;fill-opacity:1;fill-rule:nonzero;stroke:none;stroke-width:0.08003868"
         d="m 298.87514,199.55599 c 0,0 -1.94975,1.40548 -0.12478,5.87965 1.82408,4.47496 5.47623,12.92624 4.77349,13.17276 -0.70192,0.24492 -7.92862,-3.50089 -7.92862,-3.50089 l -2.43477,3.41445 c 0,0 10.54589,9.48058 14.32771,7.20508 3.78263,-2.2755 -1.98176,-28.78271 -8.61296,-26.17105" />
      <path
         inkscape:connector-curvature="0"
         id="path2449"
         style="fill:#f5f1d4;fill-opacity:1;fill-rule:nonzero;stroke:none;stroke-width:0.08003868"
         d="m 289.99884,213.15777 c 0.12638,-1.21979 1.16136,-2.14344 2.38757,-2.14344 l 0.85802,0.48984 0.0279,0.0225 c 0.30577,0.24652 0.47065,0.6147 0.50425,1.00529 0.0848,0.99247 0.85323,2.15624 0.85323,2.15624 l 0.42179,1.18137 -1.64879,2.31392 -2.71813,-2.11142 c -0.60427,-0.6123 -0.80277,-1.79367 -0.68593,-2.91421" />
      <path
         inkscape:connector-curvature="0"
         id="path2451"
         style="fill:#eae1b3;fill-opacity:1;fill-rule:nonzero;stroke:none;stroke-width:0.08003868"
         d="m 278.05867,204.25346 c 0,0 1.92575,-2.73412 0.96688,-2.73412 -0.95887,0 -1.53435,0.67153 -1.53435,0.67153 0,0 -2.92541,-2.49401 -4.31649,-2.25389 -1.39026,0.24012 1.99297,4.98321 1.99297,4.98321 l 2.89099,-0.66673" />
      <path
         inkscape:connector-curvature="0"
         id="path2453"
         style="fill:#ffffff;fill-opacity:1;fill-rule:nonzero;stroke:none;stroke-width:0.08003868"
         d="m 268.61571,203.53392 h 12.23553 c 1.14375,0 2.06979,-0.92685 2.06979,-2.0698 V 189.2286 c 0,-1.14295 -0.92604,-2.0698 -2.06979,-2.0698 h -12.23553 c -1.14293,0 -2.06979,0.92685 -2.06979,2.0698 v 12.23552 c 0,1.14295 0.92686,2.0698 2.06979,2.0698" />
      <path
         inkscape:connector-curvature="0"
         id="path2455"
         style="fill:#3f2c90;fill-opacity:1;fill-rule:nonzero;stroke:none;stroke-width:0.08003868"
         d="m 272.7121,195.34596 c 0,-1.11654 0.90523,-2.02178 2.02179,-2.02178 1.11652,0 2.02176,0.90524 2.02176,2.02178 0,1.11654 -0.90524,2.02178 -2.02176,2.02178 -1.11656,0 -2.02179,-0.90524 -2.02179,-2.02178 z m -3.04468,-0.57228 v 1.14536 c 0,0.26653 0.21531,0.48263 0.48183,0.48263 h 0.96688 c 0.0776,0.26573 0.18173,0.51945 0.31214,0.75717 l -0.68273,0.68273 c -0.18809,0.18808 -0.18809,0.49383 0,0.68273 l 0.8108,0.80999 c 0.18809,0.1889 0.49383,0.1889 0.68192,0 l 0.68273,-0.68273 c 0.23773,0.13045 0.49145,0.23451 0.75717,0.31215 v 0.96687 c 0,0.26652 0.21599,0.48263 0.48265,0.48263 h 1.14534 c 0.26654,0 0.48344,-0.21611 0.48344,-0.48263 v -0.96687 c 0.26493,-0.0776 0.51865,-0.18169 0.75635,-0.31215 l 0.68355,0.68273 c 0.18808,0.1889 0.49383,0.1889 0.68191,0 l 0.81081,-0.80999 c 0.18808,-0.1889 0.18808,-0.49464 0,-0.68273 l -0.68273,-0.68273 c 0.13045,-0.23772 0.23371,-0.49144 0.31135,-0.75717 h 0.96685 c 0.26654,0 0.48344,-0.2161 0.48344,-0.48263 v -1.14536 c 0,-0.26653 -0.2169,-0.48263 -0.48344,-0.48263 h -0.96685 c -0.0776,-0.26573 -0.18083,-0.51945 -0.31135,-0.75717 l 0.68273,-0.68272 c 0.18808,-0.18891 0.18808,-0.49384 0,-0.68274 l -0.81081,-0.81079 c -0.18808,-0.18808 -0.49383,-0.18808 -0.68191,0 l -0.68355,0.68273 c -0.2377,-0.13045 -0.49142,-0.23371 -0.75635,-0.31135 v -0.96686 c 0,-0.26653 -0.2169,-0.48264 -0.48344,-0.48264 h -1.14534 c -0.26654,0 -0.48265,0.21611 -0.48265,0.48264 v 0.96686 c -0.26572,0.0776 -0.51944,0.18089 -0.75717,0.31135 l -0.68273,-0.68273 c -0.18809,-0.18808 -0.49383,-0.18808 -0.68192,0 l -0.8108,0.81079 c -0.18809,0.18891 -0.18809,0.49384 0,0.68274 l 0.68273,0.68272 c -0.13046,0.23772 -0.2345,0.49144 -0.31214,0.75717 h -0.96688 c -0.26652,0 -0.48183,0.2161 -0.48183,0.48263" />
      <path
         inkscape:connector-curvature="0"
         id="path2457"
         style="fill:#ffffff;fill-opacity:1;fill-rule:nonzero;stroke:none;stroke-width:0.08003868"
         d="m 305.48873,178.58266 -0.27452,-0.97087 -0.27535,0.97087 c -0.2321,0.81799 -0.78358,1.50873 -1.52952,1.91693 0.74594,0.40819 1.29742,1.09893 1.52952,1.91772 l 0.27535,0.97007 0.27452,-0.97007 c 0.23213,-0.81879 0.78358,-1.50953 1.53034,-1.91772 -0.74676,-0.4082 -1.29821,-1.09894 -1.53034,-1.91693" />
      <path
         inkscape:connector-curvature="0"
         id="path2459"
         style="fill:#ffffff;fill-opacity:1;fill-rule:nonzero;stroke:none;stroke-width:0.08003868"
         d="m 309.72198,172.0491 -0.35777,-1.26221 -0.35777,1.26221 c -0.30176,1.06371 -1.01809,1.96255 -1.98737,2.49241 0.96928,0.53065 1.68561,1.42869 1.98737,2.4932 l 0.35777,1.26221 0.35777,-1.26221 c 0.30175,-1.06451 1.0189,-1.96255 1.98897,-2.4932 -0.97007,-0.52986 -1.68722,-1.4287 -1.98897,-2.49241" />
      <path
         inkscape:connector-curvature="0"
         id="path2461"
         style="fill:#ffffff;fill-opacity:1;fill-rule:nonzero;stroke:none;stroke-width:0.08003868"
         d="m 319.40506,236.90685 0.27614,-0.97087 0.27532,0.97087 c 0.23212,0.81879 0.78279,1.50872 1.52875,1.91692 -0.74596,0.4082 -1.29663,1.09893 -1.52875,1.91693 l -0.27532,0.97087 -0.27614,-0.97087 c -0.2313,-0.818 -0.78196,-1.50873 -1.52874,-1.91693 0.74678,-0.4082 1.29744,-1.09813 1.52874,-1.91692" />
      <path
         inkscape:connector-curvature="0"
         id="path2463"
         style="fill:#ffffff;fill-opacity:1;fill-rule:nonzero;stroke:none;stroke-width:0.08003868"
         d="m 315.17182,230.37329 0.35777,-1.26221 0.35856,1.26221 c 0.30176,1.06371 1.01811,1.96175 1.98817,2.4924 -0.97006,0.53066 -1.68641,1.42869 -1.98817,2.49321 l -0.35856,1.26221 -0.35777,-1.26221 c -0.30175,-1.06452 -1.01729,-1.96255 -1.98816,-2.49321 0.97087,-0.53065 1.68641,-1.42869 1.98816,-2.4924" />
      <path
         inkscape:connector-curvature="0"
         id="path2465"
         style="fill:#550000;fill-opacity:1;fill-rule:nonzero;stroke:none;stroke-width:0.08003868"
         d="m 145.38898,241.71077 -0.27535,-0.97087 -0.27452,0.97087 c -0.23213,0.81879 -0.78358,1.50873 -1.52955,1.91692 0.74597,0.4082 1.29742,1.09894 1.52955,1.91693 l 0.27452,0.97087 0.27535,-0.97087 c 0.23209,-0.81799 0.78358,-1.50873 1.52952,-1.91693 -0.74594,-0.40819 -1.29743,-1.09813 -1.52952,-1.91692" />
      <path
         inkscape:connector-curvature="0"
         id="path2467"
         style="fill:#550000;fill-opacity:1;fill-rule:nonzero;stroke:none;stroke-width:0.08003868"
         d="m 149.62222,235.17721 -0.35777,-1.26221 -0.35779,1.26221 c -0.30173,1.06371 -1.01809,1.96175 -1.98816,2.4924 0.97007,0.53066 1.68643,1.4287 1.98816,2.49321 l 0.35779,1.26221 0.35777,-1.26221 c 0.30173,-1.06451 1.01888,-1.96255 1.98895,-2.49321 -0.97007,-0.53065 -1.68722,-1.42869 -1.98895,-2.4924" />
      <path
         inkscape:connector-curvature="0"
         id="path2469"
         style="fill:#550000;fill-opacity:1;fill-rule:nonzero;stroke:none;stroke-width:0.08003868"
         d="m 176.67448,169.25735 0.27613,-0.97087 0.27455,0.97087 c 0.2329,0.818 0.78358,1.50873 1.52952,1.91693 -0.74594,0.40739 -1.29662,1.09893 -1.52952,1.91692 l -0.27455,0.97087 -0.27613,-0.97087 c -0.23131,-0.81799 -0.78277,-1.50953 -1.52873,-1.91692 0.74596,-0.4082 1.29742,-1.09893 1.52873,-1.91693" />
      <path
         inkscape:connector-curvature="0"
         id="path2471"
         style="fill:#550000;fill-opacity:1;fill-rule:nonzero;stroke:none;stroke-width:0.08003868"
         d="m 172.44123,162.7238 0.35859,-1.26302 0.35777,1.26302 c 0.30175,1.06371 1.01808,1.96174 1.98816,2.4924 -0.97008,0.53065 -1.68641,1.42869 -1.98816,2.4924 l -0.35777,1.26221 -0.35859,-1.26221 c -0.30173,-1.06371 -1.01808,-1.96175 -1.98734,-2.4924 0.96926,-0.53066 1.68561,-1.42869 1.98734,-2.4924" />
      <path
         inkscape:connector-curvature="0"
         id="path2473"
         style="fill:url(#linearGradient2773);fill-opacity:1;fill-rule:nonzero;stroke:none;stroke-width:0.08003868"
         d="m 296.81735,149.14923 c 0,2.37955 -1.92894,4.30849 -4.30768,4.30849 -2.37955,0 -4.3085,-1.92894 -4.3085,-4.30849 0,-2.37955 1.92895,-4.30848 4.3085,-4.30848 2.37874,0 4.30768,1.92893 4.30768,4.30848" />
      <path
         inkscape:connector-curvature="0"
         id="path2475"
         style="fill:#d40000;fill-opacity:1;fill-rule:nonzero;stroke:none;stroke-width:0.08003868"
         d="m 168.32325,153.70904 c 0,0.80999 -0.65551,1.4655 -1.4647,1.4655 -0.8092,0 -1.46552,-0.65551 -1.46552,-1.4655 0,-0.80919 0.65632,-1.46471 1.46552,-1.46471 0.80919,0 1.4647,0.65552 1.4647,1.46471" />
      <path
         inkscape:connector-curvature="0"
         id="path2477"
         style="fill:#48c1b4;fill-opacity:1;fill-rule:nonzero;stroke:none;stroke-width:0.08003868"
         d="m 185.65001,227.2894 c 0,0.80839 -0.6555,1.46471 -1.4647,1.46471 -0.80919,0 -1.46549,-0.65632 -1.46549,-1.46471 0,-0.80999 0.6563,-1.46551 1.46549,-1.46551 0.8092,0 1.4647,0.65552 1.4647,1.46551" />
      <path
         inkscape:connector-curvature="0"
         id="path2479"
         style="fill:#d40000;fill-opacity:1;fill-rule:nonzero;stroke:none;stroke-width:0.08003868"
         d="m 162.38438,174.54151 c 0,0.80919 -0.65632,1.4655 -1.46552,1.4655 -0.80917,0 -1.46549,-0.65631 -1.46549,-1.4655 0,-0.8092 0.65632,-1.46471 1.46549,-1.46471 0.8092,0 1.46552,0.65551 1.46552,1.46471" />
    </g>
  </g>
</svg>
