<?xml version="1.0" encoding="UTF-8" standalone="no"?>
<!-- Created with Inkscape (http://www.inkscape.org/) -->

<svg
   xmlns:dc="http://purl.org/dc/elements/1.1/"
   xmlns:cc="http://creativecommons.org/ns#"
   xmlns:rdf="http://www.w3.org/1999/02/22-rdf-syntax-ns#"
   xmlns:svg="http://www.w3.org/2000/svg"
   xmlns="http://www.w3.org/2000/svg"
   xmlns:sodipodi="http://sodipodi.sourceforge.net/DTD/sodipodi-0.dtd"
   xmlns:inkscape="http://www.inkscape.org/namespaces/inkscape"
   width="209.53931mm"
   height="210.60838mm"
   viewBox="0 0 209.53931 210.60838"
   version="1.1"
   id="svg8"
   inkscape:export-filename="/home/ilham/Documents/coba-coba-berhadiah/homepage-pondokindonesia/img/bg/1.png"
   inkscape:export-xdpi="300"
   inkscape:export-ydpi="300"
   inkscape:version="0.92.3 (2405546, 2018-03-11)"
   sodipodi:docname="1.svg">
  <defs
     id="defs2" />
  <sodipodi:namedview
     id="base"
     pagecolor="#ffffff"
     bordercolor="#666666"
     borderopacity="1.0"
     inkscape:pageopacity="0.0"
     inkscape:pageshadow="2"
     inkscape:zoom="0.24748737"
     inkscape:cx="280.10302"
     inkscape:cy="425.94238"
     inkscape:document-units="mm"
     inkscape:current-layer="layer1"
     showgrid="false"
     inkscape:window-width="1366"
     inkscape:window-height="725"
     inkscape:window-x="0"
     inkscape:window-y="20"
     inkscape:window-maximized="1" />
  <metadata
     id="metadata5">
    <rdf:RDF>
      <cc:Work
         rdf:about="">
        <dc:format>image/svg+xml</dc:format>
        <dc:type
           rdf:resource="http://purl.org/dc/dcmitype/StillImage" />
        <dc:title></dc:title>
      </cc:Work>
    </rdf:RDF>
  </metadata>
  <g
     inkscape:label="Layer 1"
     inkscape:groupmode="layer"
     id="layer1"
     transform="translate(0,-37.214012)">
    <rect
       style="opacity:0.9;fill:none;fill-opacity:1;stroke:none;stroke-width:0.2;stroke-miterlimit:4;stroke-dasharray:none;stroke-opacity:1"
       id="rect835"
       width="209.53931"
       height="210.60838"
       x="0"
       y="37.214012" />
    <g
       id="g833"
       transform="translate(18.671412,-4.9106769)">
      <path
         sodipodi:nodetypes="cscssssc"
         inkscape:connector-curvature="0"
         id="path827"
         d="m 32.505953,154.88095 c 0,0 15.119047,-21.92262 7.559524,-38.55357 -7.559524,-16.630948 -12.095239,-32.505951 -6.803572,-37.041671 5.291667,-4.53571 45.357142,-19.65476 96.761905,20.410723 51.40476,40.065468 63.5,74.839278 29.48214,81.642848 -34.01786,6.80357 -27.21429,-18.89881 -51.40476,-5.29166 -24.190476,13.60714 28.72619,67.27975 -30.238094,56.69642 C 18.89881,222.16071 18.549325,170.21632 32.505953,154.88095 Z"
         style="opacity:0.27000002;fill:#ff0000;stroke:none;stroke-width:0.26458332px;stroke-linecap:butt;stroke-linejoin:miter;stroke-opacity:1" />
      <path
         style="opacity:0.4;fill:#ff0000;stroke:none;stroke-width:0.0686266px;stroke-linecap:butt;stroke-linejoin:miter;stroke-opacity:1"
         d="m 3.5770707,139.03184 c 0,0 6.7936843,1.24781 8.4574413,5.68451 1.663767,4.43669 3.743462,8.18015 5.545872,8.04151 1.802402,-0.13866 11.923618,-4.71399 14.003318,-21.49024 2.0797,-16.77625 -2.0797,-25.37235 -9.566628,-20.38107 -7.486913,4.99129 -1.525108,8.45746 -8.457441,10.39851 -6.9323373,1.94105 -7.0709774,-17.60813 -15.9443693,-4.85263 -8.8733847,12.7555 0.5894592,22.34653 5.961807,22.59941 z"
         id="path829"
         inkscape:connector-curvature="0"
         sodipodi:nodetypes="cscssssc" />
    </g>
  </g>
</svg>
